<?xml version="1.0" encoding="UTF-8" standalone="no"?>
<!-- Created with Inkscape (http://www.inkscape.org/) -->
<svg
   xmlns:dc="http://purl.org/dc/elements/1.1/"
   xmlns:cc="http://web.resource.org/cc/"
   xmlns:rdf="http://www.w3.org/1999/02/22-rdf-syntax-ns#"
   xmlns:svg="http://www.w3.org/2000/svg"
   xmlns="http://www.w3.org/2000/svg"
   xmlns:sodipodi="http://inkscape.sourceforge.net/DTD/sodipodi-0.dtd"
   xmlns:inkscape="http://www.inkscape.org/namespaces/inkscape"
   width="500"
   height="500"
   id="svg1449"
   sodipodi:version="0.32"
   inkscape:version="0.43"
   sodipodi:docbase="/home/ahindle/msr-evoflash"
   sodipodi:docname="yarn.svg"
   version="1.0">
  <defs
     id="defs1451" />
  <sodipodi:namedview
     id="base"
     pagecolor="#ffffff"
     bordercolor="#666666"
     borderopacity="1.0"
     inkscape:pageopacity="0.0"
     inkscape:pageshadow="2"
     inkscape:zoom="0.98994949"
     inkscape:cx="384.64664"
     inkscape:cy="237.15729"
     inkscape:document-units="px"
     inkscape:current-layer="layer1"
     inkscape:window-width="1598"
     inkscape:window-height="1183"
     inkscape:window-x="0"
     inkscape:window-y="0"
     showborder="true" />
  <metadata
     id="metadata1454">
    <rdf:RDF>
      <cc:Work
         rdf:about="">
        <dc:format>image/svg+xml</dc:format>
        <dc:type
           rdf:resource="http://purl.org/dc/dcmitype/StillImage" />
      </cc:Work>
    </rdf:RDF>
  </metadata>
  <g
     inkscape:label="Layer 1"
     inkscape:groupmode="layer"
     id="layer1">
    <g
       id="g11205"
       transform="matrix(0.645441,0,0,0.645441,-0.681468,-155.2439)">
      <path
         d="M 358.20575,512.15148 C 317.30672,515.44883 345.11768,510.72067 356.49707,502.18346 C 364.06215,495.96805 370.90368,489.0124 376.92378,481.30779 C 379.45895,477.68369 382.10021,474.16616 383.95061,470.14672 C 385.76671,466.06812 387.5555,461.97981 389.12798,457.80634 C 390.44348,453.7473 390.95297,449.46757 391.51567,445.24973 C 391.72847,440.64954 391.65185,436.02829 391.50781,431.43762 C 390.89622,426.95588 389.97208,422.56917 388.59087,418.27424 C 387.16176,414.3723 385.56102,410.51367 383.75533,406.77189 C 381.67628,402.61733 378.17938,400.08029 374.62634,397.36639 C 371.3015,394.59173 367.91892,392.01867 364.38317,389.52395 C 360.33235,386.39458 356.65711,382.99181 352.29552,380.30138 C 348.41785,377.21796 344.2332,374.55245 340.18126,371.69548 C 336.10532,368.82838 331.82652,366.37449 327.47465,363.9433 C 323.7042,361.74388 320.31476,359.36559 317.0753,356.33876 C 313.53635,352.53065 310.95073,348.20734 308.66584,343.59392 C 307.00864,340.16876 305.90615,336.51748 304.458,333.00064 C 302.98385,329.17791 301.72539,325.27829 300.76884,321.29484 C 298.96245,317.21025 297.36266,313.04458 295.53033,308.97789 C 293.09114,304.66728 290.62304,300.34935 287.84394,296.24957 C 284.89841,292.57673 282.16758,288.72187 279.55715,284.82079 C 268.63338,278.39703 311.89356,261.46189 290.38976,292.4963 C 287.03188,296.93608 284.8424,302.07595 282.63666,307.15124 C 280.6196,311.77307 278.70576,316.43006 277.07469,321.20294 C 275.27288,325.9449 274.5557,331.01508 274.11463,336.04165 C 273.55848,340.20624 273.13087,344.40294 272.32807,348.53693 C 272.24684,350.53432 271.74867,352.46121 271.31948,354.3994 L 248.45997,353.68802 C 248.88371,351.88943 249.47009,350.10247 249.45258,348.21385 C 250.22051,344.14215 250.63932,340.02232 251.26558,335.93706 C 251.63022,330.68971 252.54913,325.44057 254.25078,320.45684 C 255.86412,315.61574 257.79336,310.90789 259.82686,306.23093 C 262.02274,301.00491 264.28611,295.67051 267.74059,291.15647 C 275.41973,280.29098 292.02872,267.31946 302.3987,283.61387 C 305.1009,287.38623 307.78777,291.17111 310.6385,294.83509 C 313.38493,299.13522 316.01274,303.54771 318.38767,308.05969 C 320.20997,312.24253 321.97906,316.45616 323.63092,320.7109 C 324.65856,324.5821 325.79588,328.45028 327.34737,332.15057 C 328.78245,335.64691 329.86192,339.27656 331.51161,342.68246 C 333.8022,346.94306 336.28326,351.05293 339.77884,354.46846 C 343.03352,357.21787 346.61869,359.28992 350.21456,361.54654 C 354.62387,363.92471 358.73285,366.70662 362.89971,369.4853 C 366.91616,372.33931 371.01913,375.0727 375.0126,377.94895 C 379.30514,380.74775 382.81059,384.50416 387.11357,387.31017 C 390.62657,389.89543 394.06528,392.54292 397.42102,395.3345 C 401.19121,398.19892 404.46193,401.33677 406.61414,405.66962 C 408.34233,409.56137 410.04967,413.48051 411.44466,417.50593 C 412.8136,421.96762 413.71005,426.53566 414.35396,431.16458 C 414.54051,435.90406 414.54347,440.66773 414.38043,445.41499 C 413.86721,449.78272 413.25906,454.1891 412.01047,458.40923 C 410.43029,462.71577 408.66085,466.93217 406.76836,471.13472 C 404.88495,475.36093 402.40523,479.0472 399.70943,482.7969 C 393.54034,490.63819 386.39333,497.52368 378.93875,504.15759 C 365.66797,515.24997 353.60344,517.21306 335.48389,515.75027 L 358.20575,512.15148 z "
         id="path1457"
         style="fill:#000000;fill-opacity:1;fill-rule:nonzero;stroke:none;stroke-width:1px;stroke-linecap:butt;stroke-linejoin:miter;stroke-opacity:1" />
      <path
         d="M 273.77325,354.12813 C 268.97191,355.18535 264.29309,359.38702 260.01017,362.38197 C 255.11472,365.72072 250.94711,369.96674 246.72244,374.08668 C 242.79541,377.28608 239.94933,381.3902 237.08411,385.5006 C 234.05091,389.3818 231.36164,393.50536 228.52007,397.52726 C 225.92689,401.34442 223.08856,404.95639 220.49987,408.77274 C 217.50124,412.27048 214.74032,415.96239 211.9128,419.61246 C 208.91462,423.89861 206.35242,428.46397 203.39962,432.7765 C 200.56819,437.57906 199.19673,442.92658 197.69555,448.24128 C 196.06087,454.91003 195.80046,461.83802 194.9632,468.64448 C 194.12144,475.44497 193.03958,482.07672 193.82731,488.90741 C 194.10824,494.08129 195.18636,499.14946 195.97778,504.26056 C 196.98978,509.36768 197.50477,514.56129 198.12781,519.73041 C 199.06812,525.42667 198.33327,528.93807 194.8395,533.53437 C 190.57575,537.40904 185.70876,540.54855 181.24011,544.19552 C 174.07546,550.3761 167.21734,556.90639 160.9447,564.00084 C 151.99968,573.32945 145.09298,584.15201 137.66911,594.63086 C 133.78284,599.51346 131.08844,605.05274 128.44781,610.65863 C 125.36762,616.34133 123.60886,622.50195 122.15651,628.7545 C 121.26194,634.5579 120.12552,640.32052 119.5899,646.17207 C 118.83177,652.19302 120.30374,657.69049 122.11199,663.36033 C 124.25629,670.01932 125.13168,677.02144 126.20264,683.92135 C 127.33147,690.79843 127.41358,697.76025 128.14248,704.67719 C 128.8651,711.28964 128.7041,717.85271 127.55013,724.3798 C 125.05968,731.04736 121.48374,737.34798 117.51898,743.26026 C 112.98252,749.42558 108.80501,755.82789 104.57433,762.20191 C 101.22232,767.63472 98.76912,773.53908 96.233827,779.36177 C 92.503858,786.28007 89.543087,793.64441 86.903183,801.05086 C 83.878767,808.14435 82.388513,815.6928 80.185171,823.05056 C 77.566433,834.2391 75.257393,845.54928 73.544016,856.92132 C 72.66877,863.94375 71.729159,870.94878 72.291186,878.01273 C 74.136929,883.74762 76.926825,889.08332 79.509227,894.50158 C 82.232903,900.80565 86.586053,906.12216 90.471259,911.72534 C 95.647355,918.08052 102.29429,923.14455 108.93091,927.90417 C 119.1234,937.10709 131.39037,942.31624 144.06133,947.17391 C 153.38371,950.7888 163.31762,951.89879 173.16373,953.10282 C 182.86128,954.61404 192.67989,955.4079 202.49414,955.61308 C 212.50385,955.99202 222.45401,957.25901 232.46817,957.59293 C 231.12327,957.60977 238.65782,957.65893 237.11031,957.65494 C 195.13276,957.54657 231.34493,956.72191 242.03749,956.65027 C 257.79152,956.63353 273.5456,956.64033 289.29965,956.64479 C 244.99295,956.82936 285.08281,955.65952 295.93764,955.64295 C 298.96731,955.85302 385.52906,956.9483 334.24615,956.51822 C 355.04539,955.41753 375.53988,951.71538 396.18399,949.21904 C 416.59018,946.50244 437.03218,944.37606 457.61746,943.82833 C 488.50116,942.59305 519.29482,944.65218 549.9924,947.75477 C 550.73426,948.6537 589.2259,949.58142 587.95947,949.5791 C 549.98843,949.50972 574.1543,949.14734 583.24253,948.73817 C 591.68638,948.24897 600.00132,946.59282 608.40287,945.70279 C 613.54984,944.86464 618.77425,944.76525 623.91011,943.90641 C 629.10093,943.64982 634.22799,943.13648 639.40038,942.6359 C 645.88976,941.8382 652.36805,940.98294 658.85278,940.18138 C 669.69732,938.87472 680.52451,937.3305 691.22961,935.14694 L 713.73803,938.30026 C 702.98806,940.19891 692.21039,942.02026 681.38929,943.42674 C 674.94555,944.53126 668.38245,944.90762 661.91261,945.89716 C 656.76705,946.42919 651.72016,947.33447 646.51888,947.20572 C 641.31753,947.88213 636.12397,948.28419 630.93068,949.12434 C 622.41255,949.69308 614.04398,951.40143 605.54693,952.19336 C 579.88635,953.04802 554.1803,953.65497 528.58735,950.92575 C 484.71506,946.54939 491.69721,947.67636 479.02075,947.16446 C 458.51629,947.62553 438.19476,949.85271 417.85282,952.37243 C 397.34921,955.07452 376.91882,958.39572 356.27303,959.84796 C 353.6212,959.88148 263.9067,959.97111 318.13602,959.15843 C 301.02307,959.15202 284.02662,960.15014 266.90785,960.19123 C 256.65043,960.19317 226.49675,960.18693 268.41094,960.17897 C 269.75985,960.17872 263.00813,960.1776 264.36421,960.17908 C 246.27998,960.22575 228.25352,961.87401 210.15262,961.05041 C 200.15319,960.5636 190.19818,959.31046 180.18351,959.0964 C 170.35733,958.7667 160.54524,957.84939 150.82567,956.37022 C 140.96427,955.06965 131.03966,953.84475 121.81679,949.8507 C 109.08806,944.65908 96.843553,939.14611 86.355067,930.03532 C 79.646946,925.0636 72.8553,919.79994 67.775936,913.129 C 63.853728,907.40518 59.444513,901.96153 56.764284,895.49346 C 53.989934,889.93575 51.211093,884.3101 49.483734,878.33009 C 49.027431,871.04094 49.910957,863.80977 50.970702,856.58514 C 52.939955,845.15038 54.940757,833.68147 57.737328,822.42352 C 59.837791,815.05952 61.029507,807.43121 64.07528,800.36454 C 66.762583,792.80145 70.2092,785.53828 73.548073,778.23754 C 76.079113,772.36549 78.63778,766.43078 81.90838,760.89041 C 86.223659,754.55795 90.174558,747.97942 94.876379,741.91275 C 98.759757,736.2457 102.10289,730.1814 104.77207,723.85789 C 106.01731,717.58991 106.03236,711.27392 105.42823,704.89779 C 104.69543,697.99575 104.57893,691.05197 103.45981,684.19055 C 102.44876,677.42404 101.49249,670.59127 99.394885,664.06311 C 97.443422,658.13657 96.030583,652.32383 96.791066,646.03483 C 97.321006,640.07889 98.463634,634.20666 99.404244,628.30587 C 100.88296,621.88761 102.55076,615.5148 105.69752,609.66728 C 108.32912,603.89906 111.04587,598.18011 115.01547,593.18197 C 122.73687,582.72611 129.95619,571.93668 138.92351,562.4378 C 144.9484,555.18049 151.29639,548.30797 158.55585,542.27575 C 162.85663,538.51144 167.50345,535.22085 172.07854,531.841 C 175.53768,527.74382 176.17112,525.35656 175.28142,519.94227 C 174.58149,514.80278 174.25174,509.62427 173.1613,504.54634 C 172.35495,499.43016 171.22805,494.35813 171.03637,489.16511 C 170.30036,482.12798 171.39196,475.34595 172.26551,468.34877 C 173.10945,461.43812 173.33566,454.39801 174.95563,447.61381 C 176.43628,442.15212 177.77334,436.63999 180.57466,431.67224 C 183.34655,427.11891 186.36955,422.68764 189.1614,418.11473 C 191.91651,414.39833 194.72982,410.71179 197.68219,407.20915 C 200.44446,403.60584 202.95668,399.80853 205.72261,396.19113 C 208.47257,392.13662 211.14372,388.0173 214.26679,384.23353 C 217.10576,379.89236 220.04222,375.60382 224.00639,372.19506 C 228.40763,368.14822 232.48296,363.72762 237.31834,360.15336 C 241.89566,357.01889 246.68692,353.69388 251.02275,350.52481 L 273.77325,354.12813 z "
         id="path1459"
         style="fill:#000000;fill-opacity:1;fill-rule:nonzero;stroke:none;stroke-width:1px;stroke-linecap:butt;stroke-linejoin:miter;stroke-opacity:1" />
      <path
         d="M 342.84044,535.38045 C 344.86039,539.45931 348.41257,542.87091 351.12451,546.63886 C 358.2332,556.12834 368.66296,562.58573 376.06276,571.68881 C 381.64427,579.58381 387.10947,587.50044 390.97016,596.41282 C 394.38604,604.31189 395.61889,612.95575 396.2909,621.47691 C 397.66286,629.37503 396.87396,637.2422 394.94539,644.95685 C 393.06094,651.78581 390.12206,658.29228 387.22013,664.74393 C 383.97644,673.05269 379.44954,680.70389 375.56522,688.69727 C 372.0553,695.44441 369.6932,702.7086 366.45841,709.57014 C 363.18866,715.77447 360.49619,722.25148 357.51302,728.59 C 356.20112,731.37583 355.00361,734.21119 353.74403,737.0204 L 330.89522,736.08666 C 332.2112,733.27067 333.4535,730.42592 334.77788,727.60802 C 337.81586,721.24674 340.55743,714.74687 343.7474,708.45619 C 346.97474,701.60721 349.51067,694.42841 353.00206,687.68309 C 356.85169,679.70437 361.35512,672.0797 364.51233,663.76581 C 367.33728,657.39269 370.30726,651.03126 372.25083,644.3216 C 374.1974,636.8965 374.95008,629.3408 373.60071,621.71659 C 372.92072,613.41332 371.86673,604.99216 368.32991,597.34909 C 364.46122,588.5957 359.13821,580.76527 353.39962,573.13252 C 345.61885,564.29482 335.85,557.29448 328.43034,548.08687 C 326.03787,545.32958 322.36956,539.45627 320.0613,538.98832 L 342.84044,535.38045 z "
         id="path1461"
         style="fill:#000000;fill-opacity:1;fill-rule:nonzero;stroke:none;stroke-width:1px;stroke-linecap:butt;stroke-linejoin:miter;stroke-opacity:1" />
      <path
         d="M 328.71944,708.021 C 340.12792,721.10532 352.33623,733.71991 365.183,745.45222 C 372.7013,751.61907 378.62402,759.27117 385.05534,766.46924 C 389.29443,772.0559 392.7586,778.15806 396.6306,784.00155 C 400.10908,789.33662 402.31848,795.30412 404.33457,801.30217 C 405.71096,805.77419 406.02226,810.44383 407.02354,814.98526 C 407.57849,819.60836 407.41361,824.28606 407.40759,828.93486 C 407.63663,833.31245 406.71432,837.60344 405.96761,841.88478 C 405.45192,846.17774 404.51917,850.38213 403.35492,854.54445 C 401.5069,859.6189 398.5679,864.15345 395.35127,868.45374 C 392.22013,872.6111 388.92541,876.65056 385.42617,880.50227 C 381.4702,885.06237 377.4922,889.6276 373.16449,893.83825 C 369.80978,897.77239 366.82495,901.95833 363.35817,905.80599 C 360.06199,910.19951 355.73505,913.46975 351.48258,916.87784 C 347.39117,920.22339 343.63052,923.95526 339.48804,927.19193 C 335.18533,929.82879 330.47582,931.69185 326.00316,934.01293 C 321.69474,935.71894 318.18896,938.74909 314.24679,941.10475 C 313.80333,941.22772 313.35986,941.3507 312.9164,941.47367 L 290.3801,938.14111 C 290.7952,938.17561 291.2103,938.21012 291.6254,938.24462 C 295.85992,936.54852 298.98649,933.2369 303.27439,931.60434 C 307.70614,929.17874 312.44159,927.31189 316.75236,924.7129 C 321.30399,922.16962 324.73101,918.11962 328.84357,914.85747 C 333.01632,911.53066 337.41605,908.37022 340.57745,904.02922 C 344.0977,900.24505 347.32182,896.26775 350.4217,892.1133 C 354.70447,887.91744 358.74957,883.48379 362.66295,878.92786 C 366.04207,875.01713 369.46252,871.13179 372.56365,866.9934 C 375.7027,862.92054 378.62728,858.66492 380.52251,853.85454 C 381.65932,849.74586 382.6517,845.61364 383.08353,841.36441 C 383.87758,837.26757 384.73093,833.1331 384.5582,828.93218 C 384.56387,824.42537 384.74383,819.88242 384.14507,815.40686 C 383.27196,810.95502 382.88403,806.41158 381.51188,802.05958 C 379.56302,796.25978 377.46595,790.47375 374.0478,785.34532 C 370.20629,779.57791 366.70863,773.54915 362.36879,768.1433 C 356.20109,760.90447 350.20944,753.57336 343.03093,747.2594 C 330.21774,734.73704 316.52603,721.95127 305.65636,708.021 L 328.71944,708.021 z "
         id="path1463"
         style="fill:#000000;fill-opacity:1;fill-rule:nonzero;stroke:none;stroke-width:1px;stroke-linecap:butt;stroke-linejoin:miter;stroke-opacity:1" />
      <g
         id="g10968">
        <path
           sodipodi:type="arc"
           style="fill:#f0efaf;fill-opacity:1"
           id="path9843"
           sodipodi:cx="578.81738"
           sodipodi:cy="768.50934"
           sodipodi:rx="145.46196"
           sodipodi:ry="145.46196"
           d="M 724.27934 768.50934 A 145.46196 145.46196 0 1 1  433.35542,768.50934 A 145.46196 145.46196 0 1 1  724.27934 768.50934 z"
           transform="translate(5.050763,11.11168)" />
        <g
           transform="matrix(0.396184,-0.807558,0.274462,0.13465,535.9733,845.3966)"
           id="g9361">
          <g
             id="g9363"
             transform="matrix(1.026945,0,0,1.030413,-207.2507,93.02823)"
             style="fill:#000000;fill-opacity:1">
            <rect
               transform="matrix(0.707107,0.707107,-0.707107,0.707107,0,0)"
               y="14.165428"
               x="375.80005"
               height="66.428574"
               width="66.428574"
               id="rect9365"
               style="fill:#000000;fill-opacity:1" />
            <rect
               y="275.75504"
               x="255.89287"
               height="93.928566"
               width="131.78572"
               id="rect9367"
               style="fill:#000000;fill-opacity:1" />
          </g>
          <g
             id="g9369"
             style="fill:#00e6e8;fill-opacity:1"
             transform="translate(-198.9515,102.8433)">
            <rect
               style="fill:#00e6e8;fill-opacity:1"
               id="rect9371"
               width="66.428574"
               height="66.428574"
               x="375.80005"
               y="14.165428"
               transform="matrix(0.707107,0.707107,-0.707107,0.707107,0,0)" />
            <rect
               style="fill:#00e6e8;fill-opacity:1"
               id="rect9373"
               width="131.78572"
               height="93.928566"
               x="255.89287"
               y="275.75504" />
          </g>
        </g>
        <g
           transform="matrix(0.899507,0,0,0.305712,503.053,745.4673)"
           id="g8365">
          <g
             id="g8353"
             transform="matrix(1.026945,0,0,1.030413,-207.2507,93.02823)"
             style="fill:#000000;fill-opacity:1">
            <rect
               transform="matrix(0.707107,0.707107,-0.707107,0.707107,0,0)"
               y="14.165428"
               x="375.80005"
               height="66.428574"
               width="66.428574"
               id="rect8355"
               style="fill:#000000;fill-opacity:1" />
            <rect
               y="275.75504"
               x="255.89287"
               height="93.928566"
               width="131.78572"
               id="rect8357"
               style="fill:#000000;fill-opacity:1" />
          </g>
          <g
             id="g8359"
             style="fill:#00e6e8;fill-opacity:1"
             transform="translate(-198.9515,102.8433)">
            <rect
               style="fill:#00e6e8;fill-opacity:1"
               id="rect8361"
               width="66.428574"
               height="66.428574"
               x="375.80005"
               y="14.165428"
               transform="matrix(0.707107,0.707107,-0.707107,0.707107,0,0)" />
            <rect
               style="fill:#00e6e8;fill-opacity:1"
               id="rect8363"
               width="131.78572"
               height="93.928566"
               x="255.89287"
               y="275.75504" />
          </g>
        </g>
        <g
           transform="matrix(0.754887,0.48914,-0.166243,0.256561,647.4548,546.123)"
           id="g9347">
          <g
             id="g9349"
             transform="matrix(1.026945,0,0,1.030413,-207.2507,93.02823)"
             style="fill:#000000;fill-opacity:1">
            <rect
               transform="matrix(0.707107,0.707107,-0.707107,0.707107,0,0)"
               y="14.165428"
               x="375.80005"
               height="66.428574"
               width="66.428574"
               id="rect9351"
               style="fill:#000000;fill-opacity:1" />
            <rect
               y="275.75504"
               x="255.89287"
               height="93.928566"
               width="131.78572"
               id="rect9353"
               style="fill:#000000;fill-opacity:1" />
          </g>
          <g
             id="g9355"
             style="fill:#00e6e8;fill-opacity:1"
             transform="translate(-198.9515,102.8433)">
            <rect
               style="fill:#00e6e8;fill-opacity:1"
               id="rect9357"
               width="66.428574"
               height="66.428574"
               x="375.80005"
               y="14.165428"
               transform="matrix(0.707107,0.707107,-0.707107,0.707107,0,0)" />
            <rect
               style="fill:#00e6e8;fill-opacity:1"
               id="rect9359"
               width="131.78572"
               height="93.928566"
               x="255.89287"
               y="275.75504" />
          </g>
        </g>
        <g
           transform="matrix(1.019115,-0.530655,-0.159518,-0.266989,572.5525,976.8368)"
           id="g9389">
          <g
             id="g9391"
             transform="matrix(1.026945,0,0,1.030413,-207.2507,93.02823)"
             style="fill:#000000;fill-opacity:1">
            <rect
               transform="matrix(0.707107,0.707107,-0.707107,0.707107,0,0)"
               y="14.165428"
               x="375.80005"
               height="66.428574"
               width="66.428574"
               id="rect9393"
               style="fill:#000000;fill-opacity:1" />
            <rect
               y="275.75504"
               x="255.89287"
               height="93.928566"
               width="131.78572"
               id="rect9395"
               style="fill:#000000;fill-opacity:1" />
          </g>
          <g
             id="g9397"
             style="fill:#00e6e8;fill-opacity:1"
             transform="translate(-198.9515,102.8433)">
            <rect
               style="fill:#00e6e8;fill-opacity:1"
               id="rect9399"
               width="66.428574"
               height="66.428574"
               x="375.80005"
               y="14.165428"
               transform="matrix(0.707107,0.707107,-0.707107,0.707107,0,0)" />
            <rect
               style="fill:#00e6e8;fill-opacity:1"
               id="rect9401"
               width="131.78572"
               height="93.928566"
               x="255.89287"
               y="275.75504" />
          </g>
        </g>
        <g
           transform="matrix(-1.237244,0,0,0.292263,719.3975,627.3827)"
           id="g9277">
          <g
             id="g9279"
             transform="matrix(1.026945,0,0,1.030413,-207.2507,93.02823)"
             style="fill:#000000;fill-opacity:1">
            <rect
               transform="matrix(0.707107,0.707107,-0.707107,0.707107,0,0)"
               y="14.165428"
               x="375.80005"
               height="66.428574"
               width="66.428574"
               id="rect9281"
               style="fill:#000000;fill-opacity:1" />
            <rect
               y="275.75504"
               x="255.89287"
               height="93.928566"
               width="131.78572"
               id="rect9283"
               style="fill:#000000;fill-opacity:1" />
          </g>
          <g
             id="g9285"
             style="fill:#00e6e8;fill-opacity:1"
             transform="translate(-198.9515,102.8433)">
            <rect
               style="fill:#00e6e8;fill-opacity:1"
               id="rect9287"
               width="66.428574"
               height="66.428574"
               x="375.80005"
               y="14.165428"
               transform="matrix(0.707107,0.707107,-0.707107,0.707107,0,0)" />
            <rect
               style="fill:#00e6e8;fill-opacity:1"
               id="rect9289"
               width="131.78572"
               height="93.928566"
               x="255.89287"
               y="275.75504" />
          </g>
        </g>
        <g
           id="g5558"
           transform="matrix(0.515515,0,0,0.515515,612.7199,568.4444)">
          <g
             id="g5450"
             style="fill:#000000;fill-opacity:1"
             transform="translate(66.02742,128.2197)">
            <rect
               y="179.08531"
               x="74.751289"
               height="62.629452"
               width="85.862961"
               id="rect5452"
               style="fill:#000000;fill-opacity:1" />
            <path
               transform="translate(-2.272843,0)"
               d="M 96.469564 196.2579 A 18.182745 17.172594 0 1 1  60.104074,196.2579 A 18.182745 17.172594 0 1 1  96.469564 196.2579 z"
               sodipodi:ry="17.172594"
               sodipodi:rx="18.182745"
               sodipodi:cy="196.2579"
               sodipodi:cx="78.286819"
               id="path5454"
               style="fill:#000000;fill-opacity:1"
               sodipodi:type="arc" />
            <path
               transform="translate(82.57998,-5.273209e-6)"
               d="M 96.469564 196.2579 A 18.182745 17.172594 0 1 1  60.104074,196.2579 A 18.182745 17.172594 0 1 1  96.469564 196.2579 z"
               sodipodi:ry="17.172594"
               sodipodi:rx="18.182745"
               sodipodi:cy="196.2579"
               sodipodi:cx="78.286819"
               id="path5456"
               style="fill:#000000;fill-opacity:1"
               sodipodi:type="arc" />
            <rect
               y="195.50029"
               x="57.704964"
               height="62.629452"
               width="85.862961"
               id="rect5458"
               style="fill:#000000;fill-opacity:1" />
            <rect
               y="194.74268"
               x="92.934036"
               height="62.629452"
               width="85.862961"
               id="rect5460"
               style="fill:#000000;fill-opacity:1" />
            <path
               transform="translate(-2.525387,62.12438)"
               d="M 96.469564 196.2579 A 18.182745 17.172594 0 1 1  60.104074,196.2579 A 18.182745 17.172594 0 1 1  96.469564 196.2579 z"
               sodipodi:ry="17.172594"
               sodipodi:rx="18.182745"
               sodipodi:cy="196.2579"
               sodipodi:cx="78.286819"
               id="path5462"
               style="fill:#000000;fill-opacity:1"
               sodipodi:type="arc" />
            <path
               transform="translate(82.3274,62.12438)"
               d="M 96.469564 196.2579 A 18.182745 17.172594 0 1 1  60.104074,196.2579 A 18.182745 17.172594 0 1 1  96.469564 196.2579 z"
               sodipodi:ry="17.172594"
               sodipodi:rx="18.182745"
               sodipodi:cy="196.2579"
               sodipodi:cx="78.286819"
               id="path5464"
               style="fill:#000000;fill-opacity:1"
               sodipodi:type="arc" />
            <rect
               y="212.92543"
               x="75.508904"
               height="62.629452"
               width="85.862961"
               id="rect5466"
               style="fill:#000000;fill-opacity:1" />
          </g>
          <rect
             y="311.99002"
             x="142.82172"
             height="62.629452"
             width="85.862961"
             id="rect5468"
             style="fill:#000000;fill-opacity:1" />
          <path
             transform="translate(65.79752,132.9047)"
             d="M 96.469564 196.2579 A 18.182745 17.172594 0 1 1  60.104074,196.2579 A 18.182745 17.172594 0 1 1  96.469564 196.2579 z"
             sodipodi:ry="17.172594"
             sodipodi:rx="18.182745"
             sodipodi:cy="196.2579"
             sodipodi:cx="78.286819"
             id="path5470"
             style="fill:#000000;fill-opacity:1"
             sodipodi:type="arc" />
          <path
             transform="translate(150.6503,132.9047)"
             d="M 96.469564 196.2579 A 18.182745 17.172594 0 1 1  60.104074,196.2579 A 18.182745 17.172594 0 1 1  96.469564 196.2579 z"
             sodipodi:ry="17.172594"
             sodipodi:rx="18.182745"
             sodipodi:cy="196.2579"
             sodipodi:cx="78.286819"
             id="path5472"
             style="fill:#000000;fill-opacity:1"
             sodipodi:type="arc" />
          <rect
             y="328.405"
             x="125.7754"
             height="62.629452"
             width="85.862961"
             id="rect5474"
             style="fill:#000000;fill-opacity:1" />
          <rect
             y="327.64737"
             x="161.00446"
             height="62.629452"
             width="85.862961"
             id="rect5476"
             style="fill:#000000;fill-opacity:1" />
          <path
             transform="translate(65.54502,195.029)"
             d="M 96.469564 196.2579 A 18.182745 17.172594 0 1 1  60.104074,196.2579 A 18.182745 17.172594 0 1 1  96.469564 196.2579 z"
             sodipodi:ry="17.172594"
             sodipodi:rx="18.182745"
             sodipodi:cy="196.2579"
             sodipodi:cx="78.286819"
             id="path5478"
             style="fill:#000000;fill-opacity:1"
             sodipodi:type="arc" />
          <path
             transform="translate(150.3978,195.029)"
             d="M 96.469564 196.2579 A 18.182745 17.172594 0 1 1  60.104074,196.2579 A 18.182745 17.172594 0 1 1  96.469564 196.2579 z"
             sodipodi:ry="17.172594"
             sodipodi:rx="18.182745"
             sodipodi:cy="196.2579"
             sodipodi:cx="78.286819"
             id="path5480"
             style="fill:#000000;fill-opacity:1"
             sodipodi:type="arc" />
          <rect
             y="345.83014"
             x="143.57932"
             height="62.629452"
             width="85.862961"
             id="rect5482"
             style="fill:#000000;fill-opacity:1" />
          <g
             id="g5484"
             style="fill:#eb00e1;fill-opacity:1"
             transform="matrix(0.923556,0,0,0.903745,76.40052,152.2854)">
            <rect
               y="179.08531"
               x="74.751289"
               height="62.629452"
               width="85.862961"
               id="rect5486"
               style="fill:#eb00e1;fill-opacity:1" />
            <path
               transform="translate(-2.272843,0)"
               d="M 96.469564 196.2579 A 18.182745 17.172594 0 1 1  60.104074,196.2579 A 18.182745 17.172594 0 1 1  96.469564 196.2579 z"
               sodipodi:ry="17.172594"
               sodipodi:rx="18.182745"
               sodipodi:cy="196.2579"
               sodipodi:cx="78.286819"
               id="path5488"
               style="fill:#eb00e1;fill-opacity:1"
               sodipodi:type="arc" />
            <path
               transform="translate(82.57998,-5.273209e-6)"
               d="M 96.469564 196.2579 A 18.182745 17.172594 0 1 1  60.104074,196.2579 A 18.182745 17.172594 0 1 1  96.469564 196.2579 z"
               sodipodi:ry="17.172594"
               sodipodi:rx="18.182745"
               sodipodi:cy="196.2579"
               sodipodi:cx="78.286819"
               id="path5490"
               style="fill:#eb00e1;fill-opacity:1"
               sodipodi:type="arc" />
            <rect
               y="195.50029"
               x="57.704964"
               height="62.629452"
               width="85.862961"
               id="rect5492"
               style="fill:#eb00e1;fill-opacity:1" />
            <rect
               y="194.74268"
               x="92.934036"
               height="62.629452"
               width="85.862961"
               id="rect5494"
               style="fill:#eb00e1;fill-opacity:1" />
            <path
               transform="translate(-2.525387,62.12438)"
               d="M 96.469564 196.2579 A 18.182745 17.172594 0 1 1  60.104074,196.2579 A 18.182745 17.172594 0 1 1  96.469564 196.2579 z"
               sodipodi:ry="17.172594"
               sodipodi:rx="18.182745"
               sodipodi:cy="196.2579"
               sodipodi:cx="78.286819"
               id="path5496"
               style="fill:#eb00e1;fill-opacity:1"
               sodipodi:type="arc" />
            <path
               transform="translate(82.3274,62.12438)"
               d="M 96.469564 196.2579 A 18.182745 17.172594 0 1 1  60.104074,196.2579 A 18.182745 17.172594 0 1 1  96.469564 196.2579 z"
               sodipodi:ry="17.172594"
               sodipodi:rx="18.182745"
               sodipodi:cy="196.2579"
               sodipodi:cx="78.286819"
               id="path5498"
               style="fill:#eb00e1;fill-opacity:1"
               sodipodi:type="arc" />
            <rect
               y="212.92543"
               x="75.508904"
               height="62.629452"
               width="85.862961"
               id="rect5500"
               style="fill:#eb00e1;fill-opacity:1" />
          </g>
          <path
             d="M 157.0437,324.13012 C 165.92587,330.96556 169.18394,345.32944 172.28951,355.78654 C 174.15859,363.62475 175.54123,371.65755 175.85795,379.72505 C 175.87607,380.64381 175.87314,381.56276 175.87747,382.48163 L 168.60979,391.25863 C 168.61837,390.33593 168.63249,389.41324 168.62966,388.49047 C 168.58537,380.33352 167.29118,372.31703 165.57455,364.35794 C 163.10507,354.43021 159.78314,340.11934 151.17366,334.0558 L 157.0437,324.13012 z "
             id="path5506"
             style="fill:#000000;fill-opacity:1;fill-rule:nonzero;stroke:none;stroke-width:1px;stroke-linecap:butt;stroke-linejoin:miter;stroke-opacity:1" />
          <path
             d="M 164.73329,326.66798 C 178.89543,329.17363 193.20399,332.25704 207.67762,331.58678 C 208.36128,331.55763 209.0417,331.48538 209.72374,331.43468 L 204.00071,341.21707 C 203.82073,341.21721 202.03071,341.24882 201.99245,341.21864 C 187.52803,340.58486 173.28257,337.60187 158.87802,336.5687 L 164.73329,326.66798 z "
             id="path5508"
             style="fill:#000000;fill-opacity:1;fill-rule:nonzero;stroke:none;stroke-width:1px;stroke-linecap:butt;stroke-linejoin:miter;stroke-opacity:1" />
          <path
             d="M 171.74763,349.89525 C 175.17719,349.46596 178.77726,349.76455 182.22903,350.13424 C 186.4237,350.55365 190.60036,351.1679 194.81055,351.4229 C 197.60517,351.80795 200.41088,351.91282 203.19997,352.31098 L 197.26676,362.04921 C 194.51986,361.65413 191.7438,361.52941 188.99428,361.13816 C 184.76879,360.85381 180.57757,360.2394 176.36557,359.817 C 172.88088,359.51948 169.34473,359.22395 165.88498,359.80845 L 171.74763,349.89525 z "
             id="path5516"
             style="fill:#000000;fill-opacity:1;fill-rule:nonzero;stroke:none;stroke-width:1px;stroke-linecap:butt;stroke-linejoin:miter;stroke-opacity:1" />
          <path
             d="M 176.74167,379.18343 C 187.02038,378.61025 197.34059,378.06427 207.56265,376.673 C 210.77244,376.28564 213.94193,375.64027 217.11716,375.04415 L 211.53491,384.83349 C 208.4251,385.26077 205.31693,385.70644 202.19264,386.01765 C 191.76923,387.21555 181.27463,387.7794 170.87164,389.10912 L 176.74167,379.18343 z "
             id="path5518"
             style="fill:#000000;fill-opacity:1;fill-rule:nonzero;stroke:none;stroke-width:1px;stroke-linecap:butt;stroke-linejoin:miter;stroke-opacity:1" />
        </g>
        <g
           transform="matrix(-0.701024,0.563629,-0.191559,-0.238255,668.7405,743.3476)"
           id="g9333">
          <g
             id="g9335"
             transform="matrix(1.026945,0,0,1.030413,-207.2507,93.02823)"
             style="fill:#000000;fill-opacity:1">
            <rect
               transform="matrix(0.707107,0.707107,-0.707107,0.707107,0,0)"
               y="14.165428"
               x="375.80005"
               height="66.428574"
               width="66.428574"
               id="rect9337"
               style="fill:#000000;fill-opacity:1" />
            <rect
               y="275.75504"
               x="255.89287"
               height="93.928566"
               width="131.78572"
               id="rect9339"
               style="fill:#000000;fill-opacity:1" />
          </g>
          <g
             id="g9341"
             style="fill:#00e6e8;fill-opacity:1"
             transform="translate(-198.9515,102.8433)">
            <rect
               style="fill:#00e6e8;fill-opacity:1"
               id="rect9343"
               width="66.428574"
               height="66.428574"
               x="375.80005"
               y="14.165428"
               transform="matrix(0.707107,0.707107,-0.707107,0.707107,0,0)" />
            <rect
               style="fill:#00e6e8;fill-opacity:1"
               id="rect9345"
               width="131.78572"
               height="93.928566"
               x="255.89287"
               y="275.75504" />
          </g>
        </g>
        <g
           transform="matrix(0.376354,0.816989,-0.277667,0.12791,555.7085,675.6826)"
           id="g9319">
          <g
             id="g9321"
             transform="matrix(1.026945,0,0,1.030413,-207.2507,93.02823)"
             style="fill:#000000;fill-opacity:1">
            <rect
               transform="matrix(0.707107,0.707107,-0.707107,0.707107,0,0)"
               y="14.165428"
               x="375.80005"
               height="66.428574"
               width="66.428574"
               id="rect9323"
               style="fill:#000000;fill-opacity:1" />
            <rect
               y="275.75504"
               x="255.89287"
               height="93.928566"
               width="131.78572"
               id="rect9325"
               style="fill:#000000;fill-opacity:1" />
          </g>
          <g
             id="g9327"
             style="fill:#00e6e8;fill-opacity:1"
             transform="translate(-198.9515,102.8433)">
            <rect
               style="fill:#00e6e8;fill-opacity:1"
               id="rect9329"
               width="66.428574"
               height="66.428574"
               x="375.80005"
               y="14.165428"
               transform="matrix(0.707107,0.707107,-0.707107,0.707107,0,0)" />
            <rect
               style="fill:#00e6e8;fill-opacity:1"
               id="rect9331"
               width="131.78572"
               height="93.928566"
               x="255.89287"
               y="275.75504" />
          </g>
        </g>
        <g
           transform="matrix(0.368096,-1.181219,-0.279029,-8.695192e-2,623.2405,923.5328)"
           id="g9291">
          <g
             id="g9293"
             transform="matrix(1.026945,0,0,1.030413,-207.2507,93.02823)"
             style="fill:#000000;fill-opacity:1">
            <rect
               transform="matrix(0.707107,0.707107,-0.707107,0.707107,0,0)"
               y="14.165428"
               x="375.80005"
               height="66.428574"
               width="66.428574"
               id="rect9295"
               style="fill:#000000;fill-opacity:1" />
            <rect
               y="275.75504"
               x="255.89287"
               height="93.928566"
               width="131.78572"
               id="rect9297"
               style="fill:#000000;fill-opacity:1" />
          </g>
          <g
             id="g9299"
             style="fill:#00e6e8;fill-opacity:1"
             transform="translate(-198.9515,102.8433)">
            <rect
               style="fill:#00e6e8;fill-opacity:1"
               id="rect9301"
               width="66.428574"
               height="66.428574"
               x="375.80005"
               y="14.165428"
               transform="matrix(0.707107,0.707107,-0.707107,0.707107,0,0)" />
            <rect
               style="fill:#00e6e8;fill-opacity:1"
               id="rect9303"
               width="131.78572"
               height="93.928566"
               x="255.89287"
               y="275.75504" />
          </g>
        </g>
        <g
           id="g5652"
           transform="matrix(0.515515,0,0,0.515515,164.9583,820.3102)">
          <g
             id="g5223"
             style="fill:#000000;fill-opacity:1"
             transform="translate(531.3787,-124.4433)">
            <rect
               y="179.08531"
               x="74.751289"
               height="62.629452"
               width="85.862961"
               id="rect5225"
               style="fill:#000000;fill-opacity:1" />
            <path
               transform="translate(-2.272843,0)"
               d="M 96.469564 196.2579 A 18.182745 17.172594 0 1 1  60.104074,196.2579 A 18.182745 17.172594 0 1 1  96.469564 196.2579 z"
               sodipodi:ry="17.172594"
               sodipodi:rx="18.182745"
               sodipodi:cy="196.2579"
               sodipodi:cx="78.286819"
               id="path5227"
               style="fill:#000000;fill-opacity:1"
               sodipodi:type="arc" />
            <path
               transform="translate(82.57998,-5.273209e-6)"
               d="M 96.469564 196.2579 A 18.182745 17.172594 0 1 1  60.104074,196.2579 A 18.182745 17.172594 0 1 1  96.469564 196.2579 z"
               sodipodi:ry="17.172594"
               sodipodi:rx="18.182745"
               sodipodi:cy="196.2579"
               sodipodi:cx="78.286819"
               id="path5229"
               style="fill:#000000;fill-opacity:1"
               sodipodi:type="arc" />
            <rect
               y="195.50029"
               x="57.704964"
               height="62.629452"
               width="85.862961"
               id="rect5231"
               style="fill:#000000;fill-opacity:1" />
            <rect
               y="194.74268"
               x="92.934036"
               height="62.629452"
               width="85.862961"
               id="rect5233"
               style="fill:#000000;fill-opacity:1" />
            <path
               transform="translate(-2.525387,62.12438)"
               d="M 96.469564 196.2579 A 18.182745 17.172594 0 1 1  60.104074,196.2579 A 18.182745 17.172594 0 1 1  96.469564 196.2579 z"
               sodipodi:ry="17.172594"
               sodipodi:rx="18.182745"
               sodipodi:cy="196.2579"
               sodipodi:cx="78.286819"
               id="path5235"
               style="fill:#000000;fill-opacity:1"
               sodipodi:type="arc" />
            <path
               transform="translate(82.3274,62.12438)"
               d="M 96.469564 196.2579 A 18.182745 17.172594 0 1 1  60.104074,196.2579 A 18.182745 17.172594 0 1 1  96.469564 196.2579 z"
               sodipodi:ry="17.172594"
               sodipodi:rx="18.182745"
               sodipodi:cy="196.2579"
               sodipodi:cx="78.286819"
               id="path5237"
               style="fill:#000000;fill-opacity:1"
               sodipodi:type="arc" />
            <rect
               y="212.92543"
               x="75.508904"
               height="62.629452"
               width="85.862961"
               id="rect5239"
               style="fill:#000000;fill-opacity:1" />
          </g>
          <rect
             y="59.327019"
             x="608.17297"
             height="62.629452"
             width="85.862961"
             id="rect5241"
             style="fill:#000000;fill-opacity:1" />
          <path
             transform="translate(531.1488,-119.7584)"
             d="M 96.469564 196.2579 A 18.182745 17.172594 0 1 1  60.104074,196.2579 A 18.182745 17.172594 0 1 1  96.469564 196.2579 z"
             sodipodi:ry="17.172594"
             sodipodi:rx="18.182745"
             sodipodi:cy="196.2579"
             sodipodi:cx="78.286819"
             id="path5243"
             style="fill:#000000;fill-opacity:1"
             sodipodi:type="arc" />
          <path
             transform="translate(616.0016,-119.7584)"
             d="M 96.469564 196.2579 A 18.182745 17.172594 0 1 1  60.104074,196.2579 A 18.182745 17.172594 0 1 1  96.469564 196.2579 z"
             sodipodi:ry="17.172594"
             sodipodi:rx="18.182745"
             sodipodi:cy="196.2579"
             sodipodi:cx="78.286819"
             id="path5245"
             style="fill:#000000;fill-opacity:1"
             sodipodi:type="arc" />
          <rect
             y="75.741997"
             x="591.12665"
             height="62.629452"
             width="85.862961"
             id="rect5247"
             style="fill:#000000;fill-opacity:1" />
          <rect
             y="74.984383"
             x="626.35577"
             height="62.629452"
             width="85.862961"
             id="rect5249"
             style="fill:#000000;fill-opacity:1" />
          <path
             transform="translate(530.8963,-57.63395)"
             d="M 96.469564 196.2579 A 18.182745 17.172594 0 1 1  60.104074,196.2579 A 18.182745 17.172594 0 1 1  96.469564 196.2579 z"
             sodipodi:ry="17.172594"
             sodipodi:rx="18.182745"
             sodipodi:cy="196.2579"
             sodipodi:cx="78.286819"
             id="path5251"
             style="fill:#000000;fill-opacity:1"
             sodipodi:type="arc" />
          <path
             transform="translate(615.7491,-57.63395)"
             d="M 96.469564 196.2579 A 18.182745 17.172594 0 1 1  60.104074,196.2579 A 18.182745 17.172594 0 1 1  96.469564 196.2579 z"
             sodipodi:ry="17.172594"
             sodipodi:rx="18.182745"
             sodipodi:cy="196.2579"
             sodipodi:cx="78.286819"
             id="path5253"
             style="fill:#000000;fill-opacity:1"
             sodipodi:type="arc" />
          <rect
             y="93.167137"
             x="608.9306"
             height="62.629452"
             width="85.862961"
             id="rect5255"
             style="fill:#000000;fill-opacity:1" />
          <g
             id="g5257"
             style="fill:#eb00e1;fill-opacity:1"
             transform="matrix(0.923556,0,0,0.903745,541.7518,-100.3776)">
            <rect
               y="179.08531"
               x="74.751289"
               height="62.629452"
               width="85.862961"
               id="rect5259"
               style="fill:#eb00e1;fill-opacity:1" />
            <path
               transform="translate(-2.272843,0)"
               d="M 96.469564 196.2579 A 18.182745 17.172594 0 1 1  60.104074,196.2579 A 18.182745 17.172594 0 1 1  96.469564 196.2579 z"
               sodipodi:ry="17.172594"
               sodipodi:rx="18.182745"
               sodipodi:cy="196.2579"
               sodipodi:cx="78.286819"
               id="path5261"
               style="fill:#eb00e1;fill-opacity:1"
               sodipodi:type="arc" />
            <path
               transform="translate(82.57998,-5.273209e-6)"
               d="M 96.469564 196.2579 A 18.182745 17.172594 0 1 1  60.104074,196.2579 A 18.182745 17.172594 0 1 1  96.469564 196.2579 z"
               sodipodi:ry="17.172594"
               sodipodi:rx="18.182745"
               sodipodi:cy="196.2579"
               sodipodi:cx="78.286819"
               id="path5263"
               style="fill:#eb00e1;fill-opacity:1"
               sodipodi:type="arc" />
            <rect
               y="195.50029"
               x="57.704964"
               height="62.629452"
               width="85.862961"
               id="rect5265"
               style="fill:#eb00e1;fill-opacity:1" />
            <rect
               y="194.74268"
               x="92.934036"
               height="62.629452"
               width="85.862961"
               id="rect5267"
               style="fill:#eb00e1;fill-opacity:1" />
            <path
               transform="translate(-2.525387,62.12438)"
               d="M 96.469564 196.2579 A 18.182745 17.172594 0 1 1  60.104074,196.2579 A 18.182745 17.172594 0 1 1  96.469564 196.2579 z"
               sodipodi:ry="17.172594"
               sodipodi:rx="18.182745"
               sodipodi:cy="196.2579"
               sodipodi:cx="78.286819"
               id="path5269"
               style="fill:#eb00e1;fill-opacity:1"
               sodipodi:type="arc" />
            <path
               transform="translate(82.3274,62.12438)"
               d="M 96.469564 196.2579 A 18.182745 17.172594 0 1 1  60.104074,196.2579 A 18.182745 17.172594 0 1 1  96.469564 196.2579 z"
               sodipodi:ry="17.172594"
               sodipodi:rx="18.182745"
               sodipodi:cy="196.2579"
               sodipodi:cx="78.286819"
               id="path5271"
               style="fill:#eb00e1;fill-opacity:1"
               sodipodi:type="arc" />
            <rect
               y="212.92543"
               x="75.508904"
               height="62.629452"
               width="85.862961"
               id="rect5273"
               style="fill:#eb00e1;fill-opacity:1" />
          </g>
          <path
             d="M 660.94978,92.748611 C 660.16237,89.150791 658.69281,85.833071 656.02234,83.262501 C 653.45302,81.171121 650.48531,79.998661 647.30607,79.217651 C 635.00377,78.940101 660.05635,78.340581 650.33315,79.196891 C 646.40261,80.587491 643.54227,83.976231 641.34512,87.402111 C 639.28236,91.460331 638.85432,95.974931 639.39853,100.42909 C 639.68834,105.07829 641.41559,109.34754 642.88653,113.70518 C 644.2992,117.23073 646.24874,120.48535 648.3753,123.61633 C 649.84276,126.03359 651.81343,127.10891 654.50353,127.70136 C 665.73553,127.7648 640.44195,128.54236 651.10364,127.63071 C 653.67835,127.15237 656.10524,126.0199 658.42864,124.84271 C 660.76091,123.50151 662.0951,121.54113 662.91146,119.07278 C 663.03072,116.78751 663.34537,114.52276 663.82004,112.28553 C 663.95549,111.70457 663.94123,111.10505 664.0017,110.51609 L 675.43203,110.57376 C 675.37436,111.21797 675.38868,111.87104 675.25883,112.50853 C 674.73391,114.7269 674.45543,116.99085 674.33259,119.26747 C 673.66704,122.0593 672.19782,124.34026 669.77421,125.95889 C 667.49898,127.42438 664.95917,128.41135 662.38815,129.25392 C 656.1059,130.34421 649.51585,129.99716 643.19711,129.24765 C 640.49164,128.26821 638.46771,126.88209 637.01159,124.31805 C 634.87116,121.0989 632.99073,117.69754 631.59506,114.08433 C 630.09905,109.66173 628.40224,105.31344 628.06572,100.60165 C 627.47742,95.898371 628.06407,91.155151 630.0788,86.824691 C 632.29519,83.133831 635.1605,79.718571 639.02501,77.700351 C 645.3204,76.156221 652.17559,76.857831 658.59428,77.689881 C 661.79348,78.699711 664.85229,80.007511 667.34807,82.332451 C 670.06047,85.171051 671.40508,89.043741 672.48132,92.748611 L 660.94978,92.748611 z "
             id="path1527"
             style="fill:#000000;fill-opacity:1;fill-rule:nonzero;stroke:none;stroke-width:1px;stroke-linecap:butt;stroke-linejoin:miter;stroke-opacity:1" />
        </g>
        <g
           transform="matrix(-0.951392,-0.530655,0.148918,-0.266989,600.9072,975.064)"
           id="g9375">
          <g
             id="g9377"
             transform="matrix(1.026945,0,0,1.030413,-207.2507,93.02823)"
             style="fill:#000000;fill-opacity:1">
            <rect
               transform="matrix(0.707107,0.707107,-0.707107,0.707107,0,0)"
               y="14.165428"
               x="375.80005"
               height="66.428574"
               width="66.428574"
               id="rect9379"
               style="fill:#000000;fill-opacity:1" />
            <rect
               y="275.75504"
               x="255.89287"
               height="93.928566"
               width="131.78572"
               id="rect9381"
               style="fill:#000000;fill-opacity:1" />
          </g>
          <g
             id="g9383"
             style="fill:#00e6e8;fill-opacity:1"
             transform="translate(-198.9515,102.8433)">
            <rect
               style="fill:#00e6e8;fill-opacity:1"
               id="rect9385"
               width="66.428574"
               height="66.428574"
               x="375.80005"
               y="14.165428"
               transform="matrix(0.707107,0.707107,-0.707107,0.707107,0,0)" />
            <rect
               style="fill:#00e6e8;fill-opacity:1"
               id="rect9387"
               width="131.78572"
               height="93.928566"
               x="255.89287"
               y="275.75504" />
          </g>
        </g>
        <g
           id="g5590"
           transform="matrix(0.515515,0,0,0.515515,317.4035,636.1977)">
          <g
             id="g5087"
             style="fill:#000000;fill-opacity:1"
             transform="translate(164.9501,-6.943245)">
            <rect
               y="179.08531"
               x="74.751289"
               height="62.629452"
               width="85.862961"
               id="rect5089"
               style="fill:#000000;fill-opacity:1" />
            <path
               transform="translate(-2.272843,0)"
               d="M 96.469564 196.2579 A 18.182745 17.172594 0 1 1  60.104074,196.2579 A 18.182745 17.172594 0 1 1  96.469564 196.2579 z"
               sodipodi:ry="17.172594"
               sodipodi:rx="18.182745"
               sodipodi:cy="196.2579"
               sodipodi:cx="78.286819"
               id="path5091"
               style="fill:#000000;fill-opacity:1"
               sodipodi:type="arc" />
            <path
               transform="translate(82.57998,-5.273209e-6)"
               d="M 96.469564 196.2579 A 18.182745 17.172594 0 1 1  60.104074,196.2579 A 18.182745 17.172594 0 1 1  96.469564 196.2579 z"
               sodipodi:ry="17.172594"
               sodipodi:rx="18.182745"
               sodipodi:cy="196.2579"
               sodipodi:cx="78.286819"
               id="path5093"
               style="fill:#000000;fill-opacity:1"
               sodipodi:type="arc" />
            <rect
               y="195.50029"
               x="57.704964"
               height="62.629452"
               width="85.862961"
               id="rect5095"
               style="fill:#000000;fill-opacity:1" />
            <rect
               y="194.74268"
               x="92.934036"
               height="62.629452"
               width="85.862961"
               id="rect5097"
               style="fill:#000000;fill-opacity:1" />
            <path
               transform="translate(-2.525387,62.12438)"
               d="M 96.469564 196.2579 A 18.182745 17.172594 0 1 1  60.104074,196.2579 A 18.182745 17.172594 0 1 1  96.469564 196.2579 z"
               sodipodi:ry="17.172594"
               sodipodi:rx="18.182745"
               sodipodi:cy="196.2579"
               sodipodi:cx="78.286819"
               id="path5099"
               style="fill:#000000;fill-opacity:1"
               sodipodi:type="arc" />
            <path
               transform="translate(82.3274,62.12438)"
               d="M 96.469564 196.2579 A 18.182745 17.172594 0 1 1  60.104074,196.2579 A 18.182745 17.172594 0 1 1  96.469564 196.2579 z"
               sodipodi:ry="17.172594"
               sodipodi:rx="18.182745"
               sodipodi:cy="196.2579"
               sodipodi:cx="78.286819"
               id="path5101"
               style="fill:#000000;fill-opacity:1"
               sodipodi:type="arc" />
            <rect
               y="212.92543"
               x="75.508904"
               height="62.629452"
               width="85.862961"
               id="rect5103"
               style="fill:#000000;fill-opacity:1" />
          </g>
          <rect
             y="176.82703"
             x="241.7444"
             height="62.629452"
             width="85.862961"
             id="rect5105"
             style="fill:#000000;fill-opacity:1" />
          <path
             transform="translate(164.7202,-2.258301)"
             d="M 96.469564 196.2579 A 18.182745 17.172594 0 1 1  60.104074,196.2579 A 18.182745 17.172594 0 1 1  96.469564 196.2579 z"
             sodipodi:ry="17.172594"
             sodipodi:rx="18.182745"
             sodipodi:cy="196.2579"
             sodipodi:cx="78.286819"
             id="path5107"
             style="fill:#000000;fill-opacity:1"
             sodipodi:type="arc" />
          <path
             transform="translate(249.573,-2.258301)"
             d="M 96.469564 196.2579 A 18.182745 17.172594 0 1 1  60.104074,196.2579 A 18.182745 17.172594 0 1 1  96.469564 196.2579 z"
             sodipodi:ry="17.172594"
             sodipodi:rx="18.182745"
             sodipodi:cy="196.2579"
             sodipodi:cx="78.286819"
             id="path5109"
             style="fill:#000000;fill-opacity:1"
             sodipodi:type="arc" />
          <rect
             y="193.242"
             x="224.69807"
             height="62.629452"
             width="85.862961"
             id="rect5111"
             style="fill:#000000;fill-opacity:1" />
          <rect
             y="192.48439"
             x="259.92715"
             height="62.629452"
             width="85.862961"
             id="rect5113"
             style="fill:#000000;fill-opacity:1" />
          <path
             transform="translate(164.4677,59.86605)"
             d="M 96.469564 196.2579 A 18.182745 17.172594 0 1 1  60.104074,196.2579 A 18.182745 17.172594 0 1 1  96.469564 196.2579 z"
             sodipodi:ry="17.172594"
             sodipodi:rx="18.182745"
             sodipodi:cy="196.2579"
             sodipodi:cx="78.286819"
             id="path5115"
             style="fill:#000000;fill-opacity:1"
             sodipodi:type="arc" />
          <path
             transform="translate(249.3205,59.86605)"
             d="M 96.469564 196.2579 A 18.182745 17.172594 0 1 1  60.104074,196.2579 A 18.182745 17.172594 0 1 1  96.469564 196.2579 z"
             sodipodi:ry="17.172594"
             sodipodi:rx="18.182745"
             sodipodi:cy="196.2579"
             sodipodi:cx="78.286819"
             id="path5117"
             style="fill:#000000;fill-opacity:1"
             sodipodi:type="arc" />
          <rect
             y="210.66714"
             x="242.50201"
             height="62.629452"
             width="85.862961"
             id="rect5119"
             style="fill:#000000;fill-opacity:1" />
          <g
             id="g5121"
             style="fill:#eb00e1;fill-opacity:1"
             transform="matrix(0.923556,0,0,0.903745,175.3232,17.12245)">
            <rect
               y="179.08531"
               x="74.751289"
               height="62.629452"
               width="85.862961"
               id="rect5123"
               style="fill:#eb00e1;fill-opacity:1" />
            <path
               transform="translate(-2.272843,0)"
               d="M 96.469564 196.2579 A 18.182745 17.172594 0 1 1  60.104074,196.2579 A 18.182745 17.172594 0 1 1  96.469564 196.2579 z"
               sodipodi:ry="17.172594"
               sodipodi:rx="18.182745"
               sodipodi:cy="196.2579"
               sodipodi:cx="78.286819"
               id="path5125"
               style="fill:#eb00e1;fill-opacity:1"
               sodipodi:type="arc" />
            <path
               transform="translate(82.57998,-5.273209e-6)"
               d="M 96.469564 196.2579 A 18.182745 17.172594 0 1 1  60.104074,196.2579 A 18.182745 17.172594 0 1 1  96.469564 196.2579 z"
               sodipodi:ry="17.172594"
               sodipodi:rx="18.182745"
               sodipodi:cy="196.2579"
               sodipodi:cx="78.286819"
               id="path5127"
               style="fill:#eb00e1;fill-opacity:1"
               sodipodi:type="arc" />
            <rect
               y="195.50029"
               x="57.704964"
               height="62.629452"
               width="85.862961"
               id="rect5129"
               style="fill:#eb00e1;fill-opacity:1" />
            <rect
               y="194.74268"
               x="92.934036"
               height="62.629452"
               width="85.862961"
               id="rect5131"
               style="fill:#eb00e1;fill-opacity:1" />
            <path
               transform="translate(-2.525387,62.12438)"
               d="M 96.469564 196.2579 A 18.182745 17.172594 0 1 1  60.104074,196.2579 A 18.182745 17.172594 0 1 1  96.469564 196.2579 z"
               sodipodi:ry="17.172594"
               sodipodi:rx="18.182745"
               sodipodi:cy="196.2579"
               sodipodi:cx="78.286819"
               id="path5133"
               style="fill:#eb00e1;fill-opacity:1"
               sodipodi:type="arc" />
            <path
               transform="translate(82.3274,62.12438)"
               d="M 96.469564 196.2579 A 18.182745 17.172594 0 1 1  60.104074,196.2579 A 18.182745 17.172594 0 1 1  96.469564 196.2579 z"
               sodipodi:ry="17.172594"
               sodipodi:rx="18.182745"
               sodipodi:cy="196.2579"
               sodipodi:cx="78.286819"
               id="path5135"
               style="fill:#eb00e1;fill-opacity:1"
               sodipodi:type="arc" />
            <rect
               y="212.92543"
               x="75.508904"
               height="62.629452"
               width="85.862961"
               id="rect5137"
               style="fill:#eb00e1;fill-opacity:1" />
          </g>
          <path
             style="fill:#000000;fill-opacity:1;fill-rule:nonzero;stroke:none;stroke-width:1px;stroke-linecap:butt;stroke-linejoin:miter;stroke-opacity:1"
             id="path5143"
             d="M 270.24154,198.70269 C 273.02698,213.4032 276.5103,227.97361 279.12553,242.71331 C 279.52306,245.22584 279.81128,247.60215 279.67572,250.1249 L 263.50309,249.96861 C 263.64658,247.59378 263.29986,245.31196 263.1413,242.92639 C 261.44166,227.92506 258.38942,213.1344 253.93347,198.70269 L 270.24154,198.70269 z " />
          <path
             style="fill:#000000;fill-opacity:1;fill-rule:nonzero;stroke:none;stroke-width:1px;stroke-linecap:butt;stroke-linejoin:miter;stroke-opacity:1"
             id="path5145"
             d="M 270.22659,199.48452 C 237.21895,203.60483 262.55219,196.41492 270.45775,194.67013 C 282.04629,193.25039 297.59678,190.37376 306.03956,200.38403 C 310.62856,207.237 308.90097,212.05648 303.51679,217.77918 C 300.14071,220.61139 296.01834,222.3767 291.98279,224.06898 C 288.88717,225.96104 267.45109,224.37205 280.09755,223.24813 C 291.18166,223.30678 307.78128,216.6892 314.6188,227.74731 C 316.69339,233.02374 315.16551,238.60871 312.24069,243.23522 C 307.92676,246.1139 302.47415,247.07617 297.35786,247.66559 C 288.29697,248.40601 279.27273,247.25718 270.24347,247.02373 L 286.18048,244.54489 C 303.66618,245.57286 269.52397,245.25883 281.40033,245.22437 C 286.43471,244.96957 291.51643,243.93517 296.13779,241.92135 C 299.06119,238.10673 300.72843,233.31454 298.55981,228.59656 C 296.62092,226.42625 287.67552,225.0633 290.58569,225.04137 C 319.04946,224.82688 302.07628,224.84139 295.62898,225.56549 C 288.08088,226.25236 264.02746,228.94929 275.92486,222.10988 C 279.94733,220.56477 283.9697,218.85451 287.60544,216.49771 C 292.70974,211.58802 294.55541,207.59722 290.10042,201.48265 C 286.82602,198.17793 272.42811,196.49318 277.08015,196.45688 C 303.53326,196.25054 292.07836,196.00191 286.20892,196.86343 C 274.60987,199.10566 266.85301,204.16581 254.11931,202.03566 L 270.22659,199.48452 z " />
        </g>
        <g
           transform="matrix(-0.632302,-1.06347,-0.251214,0.149363,802.7856,814.0918)"
           id="g9305">
          <g
             id="g9307"
             transform="matrix(1.026945,0,0,1.030413,-207.2507,93.02823)"
             style="fill:#000000;fill-opacity:1">
            <rect
               transform="matrix(0.707107,0.707107,-0.707107,0.707107,0,0)"
               y="14.165428"
               x="375.80005"
               height="66.428574"
               width="66.428574"
               id="rect9309"
               style="fill:#000000;fill-opacity:1" />
            <rect
               y="275.75504"
               x="255.89287"
               height="93.928566"
               width="131.78572"
               id="rect9311"
               style="fill:#000000;fill-opacity:1" />
          </g>
          <g
             id="g9313"
             style="fill:#00e6e8;fill-opacity:1"
             transform="translate(-198.9515,102.8433)">
            <rect
               style="fill:#00e6e8;fill-opacity:1"
               id="rect9315"
               width="66.428574"
               height="66.428574"
               x="375.80005"
               y="14.165428"
               transform="matrix(0.707107,0.707107,-0.707107,0.707107,0,0)" />
            <rect
               style="fill:#00e6e8;fill-opacity:1"
               id="rect9317"
               width="131.78572"
               height="93.928566"
               x="255.89287"
               y="275.75504" />
          </g>
        </g>
        <g
           id="g5528"
           transform="matrix(0.515515,0,0,0.515515,520.6637,541.1957)">
          <g
             style="fill:#000000;fill-opacity:1"
             id="g3295">
            <rect
               style="fill:#000000;fill-opacity:1"
               id="rect2402"
               width="85.862961"
               height="62.629452"
               x="74.751289"
               y="179.08531" />
            <path
               sodipodi:type="arc"
               style="fill:#000000;fill-opacity:1"
               id="path3277"
               sodipodi:cx="78.286819"
               sodipodi:cy="196.2579"
               sodipodi:rx="18.182745"
               sodipodi:ry="17.172594"
               d="M 96.469564 196.2579 A 18.182745 17.172594 0 1 1  60.104074,196.2579 A 18.182745 17.172594 0 1 1  96.469564 196.2579 z"
               transform="translate(-2.272843,0)" />
            <path
               sodipodi:type="arc"
               style="fill:#000000;fill-opacity:1"
               id="path3279"
               sodipodi:cx="78.286819"
               sodipodi:cy="196.2579"
               sodipodi:rx="18.182745"
               sodipodi:ry="17.172594"
               d="M 96.469564 196.2579 A 18.182745 17.172594 0 1 1  60.104074,196.2579 A 18.182745 17.172594 0 1 1  96.469564 196.2579 z"
               transform="translate(82.57998,-5.273209e-6)" />
            <rect
               style="fill:#000000;fill-opacity:1"
               id="rect3281"
               width="85.862961"
               height="62.629452"
               x="57.704964"
               y="195.50029" />
            <rect
               style="fill:#000000;fill-opacity:1"
               id="rect3283"
               width="85.862961"
               height="62.629452"
               x="92.934036"
               y="194.74268" />
            <path
               sodipodi:type="arc"
               style="fill:#000000;fill-opacity:1"
               id="path3289"
               sodipodi:cx="78.286819"
               sodipodi:cy="196.2579"
               sodipodi:rx="18.182745"
               sodipodi:ry="17.172594"
               d="M 96.469564 196.2579 A 18.182745 17.172594 0 1 1  60.104074,196.2579 A 18.182745 17.172594 0 1 1  96.469564 196.2579 z"
               transform="translate(-2.525387,62.12438)" />
            <path
               sodipodi:type="arc"
               style="fill:#000000;fill-opacity:1"
               id="path3291"
               sodipodi:cx="78.286819"
               sodipodi:cy="196.2579"
               sodipodi:rx="18.182745"
               sodipodi:ry="17.172594"
               d="M 96.469564 196.2579 A 18.182745 17.172594 0 1 1  60.104074,196.2579 A 18.182745 17.172594 0 1 1  96.469564 196.2579 z"
               transform="translate(82.3274,62.12438)" />
            <rect
               style="fill:#000000;fill-opacity:1"
               id="rect3293"
               width="85.862961"
               height="62.629452"
               x="75.508904"
               y="212.92543" />
          </g>
          <rect
             y="183.77026"
             x="76.794319"
             height="62.629452"
             width="85.862961"
             id="rect4180"
             style="fill:#000000;fill-opacity:1" />
          <path
             transform="translate(-0.229816,4.684945)"
             d="M 96.469564 196.2579 A 18.182745 17.172594 0 1 1  60.104074,196.2579 A 18.182745 17.172594 0 1 1  96.469564 196.2579 z"
             sodipodi:ry="17.172594"
             sodipodi:rx="18.182745"
             sodipodi:cy="196.2579"
             sodipodi:cx="78.286819"
             id="path4182"
             style="fill:#000000;fill-opacity:1"
             sodipodi:type="arc" />
          <path
             transform="translate(84.62301,4.68494)"
             d="M 96.469564 196.2579 A 18.182745 17.172594 0 1 1  60.104074,196.2579 A 18.182745 17.172594 0 1 1  96.469564 196.2579 z"
             sodipodi:ry="17.172594"
             sodipodi:rx="18.182745"
             sodipodi:cy="196.2579"
             sodipodi:cx="78.286819"
             id="path4184"
             style="fill:#000000;fill-opacity:1"
             sodipodi:type="arc" />
          <rect
             y="200.18524"
             x="59.74799"
             height="62.629452"
             width="85.862961"
             id="rect4186"
             style="fill:#000000;fill-opacity:1" />
          <rect
             y="199.42763"
             x="94.977066"
             height="62.629452"
             width="85.862961"
             id="rect4188"
             style="fill:#000000;fill-opacity:1" />
          <path
             transform="translate(-0.48236,66.80933)"
             d="M 96.469564 196.2579 A 18.182745 17.172594 0 1 1  60.104074,196.2579 A 18.182745 17.172594 0 1 1  96.469564 196.2579 z"
             sodipodi:ry="17.172594"
             sodipodi:rx="18.182745"
             sodipodi:cy="196.2579"
             sodipodi:cx="78.286819"
             id="path4190"
             style="fill:#000000;fill-opacity:1"
             sodipodi:type="arc" />
          <path
             transform="translate(84.37043,66.80933)"
             d="M 96.469564 196.2579 A 18.182745 17.172594 0 1 1  60.104074,196.2579 A 18.182745 17.172594 0 1 1  96.469564 196.2579 z"
             sodipodi:ry="17.172594"
             sodipodi:rx="18.182745"
             sodipodi:cy="196.2579"
             sodipodi:cx="78.286819"
             id="path4192"
             style="fill:#000000;fill-opacity:1"
             sodipodi:type="arc" />
          <rect
             y="217.61038"
             x="77.551933"
             height="62.629452"
             width="85.862961"
             id="rect4194"
             style="fill:#000000;fill-opacity:1" />
          <g
             id="g4196"
             style="fill:#eb00e1;fill-opacity:1"
             transform="matrix(0.923556,0,0,0.903745,10.37314,24.0657)">
            <rect
               y="179.08531"
               x="74.751289"
               height="62.629452"
               width="85.862961"
               id="rect4198"
               style="fill:#eb00e1;fill-opacity:1" />
            <path
               transform="translate(-2.272843,0)"
               d="M 96.469564 196.2579 A 18.182745 17.172594 0 1 1  60.104074,196.2579 A 18.182745 17.172594 0 1 1  96.469564 196.2579 z"
               sodipodi:ry="17.172594"
               sodipodi:rx="18.182745"
               sodipodi:cy="196.2579"
               sodipodi:cx="78.286819"
               id="path4200"
               style="fill:#eb00e1;fill-opacity:1"
               sodipodi:type="arc" />
            <path
               transform="translate(82.57998,-5.273209e-6)"
               d="M 96.469564 196.2579 A 18.182745 17.172594 0 1 1  60.104074,196.2579 A 18.182745 17.172594 0 1 1  96.469564 196.2579 z"
               sodipodi:ry="17.172594"
               sodipodi:rx="18.182745"
               sodipodi:cy="196.2579"
               sodipodi:cx="78.286819"
               id="path4202"
               style="fill:#eb00e1;fill-opacity:1"
               sodipodi:type="arc" />
            <rect
               y="195.50029"
               x="57.704964"
               height="62.629452"
               width="85.862961"
               id="rect4204"
               style="fill:#eb00e1;fill-opacity:1" />
            <rect
               y="194.74268"
               x="92.934036"
               height="62.629452"
               width="85.862961"
               id="rect4206"
               style="fill:#eb00e1;fill-opacity:1" />
            <path
               transform="translate(-2.525387,62.12438)"
               d="M 96.469564 196.2579 A 18.182745 17.172594 0 1 1  60.104074,196.2579 A 18.182745 17.172594 0 1 1  96.469564 196.2579 z"
               sodipodi:ry="17.172594"
               sodipodi:rx="18.182745"
               sodipodi:cy="196.2579"
               sodipodi:cx="78.286819"
               id="path4208"
               style="fill:#eb00e1;fill-opacity:1"
               sodipodi:type="arc" />
            <path
               transform="translate(82.3274,62.12438)"
               d="M 96.469564 196.2579 A 18.182745 17.172594 0 1 1  60.104074,196.2579 A 18.182745 17.172594 0 1 1  96.469564 196.2579 z"
               sodipodi:ry="17.172594"
               sodipodi:rx="18.182745"
               sodipodi:cy="196.2579"
               sodipodi:cx="78.286819"
               id="path4210"
               style="fill:#eb00e1;fill-opacity:1"
               sodipodi:type="arc" />
            <rect
               y="212.92543"
               x="75.508904"
               height="62.629452"
               width="85.862961"
               id="rect4212"
               style="fill:#eb00e1;fill-opacity:1" />
          </g>
          <path
             d="M 84.955548,253.72106 C 86.318318,241.2197 87.780988,228.72885 89.244288,216.2379 C 90.034268,212.08231 90.110968,207.67466 92.224238,203.9526 C 94.665418,200.9295 98.599398,199.77829 102.0176,198.13789 C 102.36173,198.05731 102.70586,197.97674 103.04999,197.89616 C 107.25729,198.05555 111.48474,197.93324 115.67188,198.37431 C 125.2261,199.38073 141.04755,224.945 144.70752,232.77968 C 147.71164,239.80266 149.79769,247.16397 152.21728,254.39718 L 141.35885,254.72191 C 139.31022,247.45685 137.21215,240.17753 134.19681,233.24164 C 129.39281,223.07586 123.06792,214.08695 114.64098,206.58074 C 112.16647,204.37661 109.54054,202.1878 106.5774,200.65728 C 105.94239,200.32928 103.8846,199.94787 104.59218,199.84712 C 107.46849,199.43759 118.12923,199.81318 113.30118,199.49868 C 109.98424,200.95501 106.22957,202.17198 103.59512,204.67944 C 101.25009,208.10949 101.43599,212.45925 100.37283,216.3955 C 98.302778,228.73237 96.244838,241.1688 96.487088,253.72106 L 84.955548,253.72106 z "
             id="path1517"
             style="fill:#000000;fill-opacity:1;fill-rule:nonzero;stroke:none;stroke-width:1px;stroke-linecap:butt;stroke-linejoin:miter;stroke-opacity:1" />
          <path
             d="M 95.057078,234.52817 C 101.84366,227.38623 116.50827,222.64355 126.60011,218.51833 C 127.24286,218.25911 127.88562,217.99989 128.52837,217.74067 L 139.48182,219.06673 C 138.79497,219.31714 138.10812,219.56755 137.42127,219.81796 C 127.19038,223.71042 114.63924,228.8423 106.58862,234.52817 L 95.057078,234.52817 z "
             id="path1519"
             style="fill:#000000;fill-opacity:1;fill-rule:nonzero;stroke:none;stroke-width:1px;stroke-linecap:butt;stroke-linejoin:miter;stroke-opacity:1" />
        </g>
        <g
           id="g5620"
           transform="matrix(0.515515,0,0,0.515515,419.2799,813.6746)">
          <g
             id="g5167"
             style="fill:#000000;fill-opacity:1"
             transform="translate(374.2359,-111.229)">
            <rect
               y="179.08531"
               x="74.751289"
               height="62.629452"
               width="85.862961"
               id="rect5169"
               style="fill:#000000;fill-opacity:1" />
            <path
               transform="translate(-2.272843,0)"
               d="M 96.469564 196.2579 A 18.182745 17.172594 0 1 1  60.104074,196.2579 A 18.182745 17.172594 0 1 1  96.469564 196.2579 z"
               sodipodi:ry="17.172594"
               sodipodi:rx="18.182745"
               sodipodi:cy="196.2579"
               sodipodi:cx="78.286819"
               id="path5171"
               style="fill:#000000;fill-opacity:1"
               sodipodi:type="arc" />
            <path
               transform="translate(82.57998,-5.273209e-6)"
               d="M 96.469564 196.2579 A 18.182745 17.172594 0 1 1  60.104074,196.2579 A 18.182745 17.172594 0 1 1  96.469564 196.2579 z"
               sodipodi:ry="17.172594"
               sodipodi:rx="18.182745"
               sodipodi:cy="196.2579"
               sodipodi:cx="78.286819"
               id="path5173"
               style="fill:#000000;fill-opacity:1"
               sodipodi:type="arc" />
            <rect
               y="195.50029"
               x="57.704964"
               height="62.629452"
               width="85.862961"
               id="rect5175"
               style="fill:#000000;fill-opacity:1" />
            <rect
               y="194.74268"
               x="92.934036"
               height="62.629452"
               width="85.862961"
               id="rect5177"
               style="fill:#000000;fill-opacity:1" />
            <path
               transform="translate(-2.525387,62.12438)"
               d="M 96.469564 196.2579 A 18.182745 17.172594 0 1 1  60.104074,196.2579 A 18.182745 17.172594 0 1 1  96.469564 196.2579 z"
               sodipodi:ry="17.172594"
               sodipodi:rx="18.182745"
               sodipodi:cy="196.2579"
               sodipodi:cx="78.286819"
               id="path5179"
               style="fill:#000000;fill-opacity:1"
               sodipodi:type="arc" />
            <path
               transform="translate(82.3274,62.12438)"
               d="M 96.469564 196.2579 A 18.182745 17.172594 0 1 1  60.104074,196.2579 A 18.182745 17.172594 0 1 1  96.469564 196.2579 z"
               sodipodi:ry="17.172594"
               sodipodi:rx="18.182745"
               sodipodi:cy="196.2579"
               sodipodi:cx="78.286819"
               id="path5181"
               style="fill:#000000;fill-opacity:1"
               sodipodi:type="arc" />
            <rect
               y="212.92543"
               x="75.508904"
               height="62.629452"
               width="85.862961"
               id="rect5183"
               style="fill:#000000;fill-opacity:1" />
          </g>
          <rect
             y="72.541306"
             x="451.03012"
             height="62.629452"
             width="85.862961"
             id="rect5185"
             style="fill:#000000;fill-opacity:1" />
          <path
             transform="translate(374.006,-106.5441)"
             d="M 96.469564 196.2579 A 18.182745 17.172594 0 1 1  60.104074,196.2579 A 18.182745 17.172594 0 1 1  96.469564 196.2579 z"
             sodipodi:ry="17.172594"
             sodipodi:rx="18.182745"
             sodipodi:cy="196.2579"
             sodipodi:cx="78.286819"
             id="path5187"
             style="fill:#000000;fill-opacity:1"
             sodipodi:type="arc" />
          <path
             transform="translate(458.8588,-106.5441)"
             d="M 96.469564 196.2579 A 18.182745 17.172594 0 1 1  60.104074,196.2579 A 18.182745 17.172594 0 1 1  96.469564 196.2579 z"
             sodipodi:ry="17.172594"
             sodipodi:rx="18.182745"
             sodipodi:cy="196.2579"
             sodipodi:cx="78.286819"
             id="path5189"
             style="fill:#000000;fill-opacity:1"
             sodipodi:type="arc" />
          <path
             style="fill:#000000;fill-opacity:1;fill-rule:nonzero;stroke:none;stroke-width:1px;stroke-linecap:butt;stroke-linejoin:miter;stroke-opacity:1"
             id="path5151"
             d="M 480.80634,73.946257 C 482.63129,93.134247 489.35933,111.54574 491.38504,130.72485 C 491.50396,131.88971 491.53402,133.05947 491.56765,134.22872 L 483.54972,134.22208 C 483.58316,133.07608 483.62295,131.92959 483.5698,130.78312 C 482.72957,111.39884 476.93778,92.765807 472.76509,73.946257 L 480.80634,73.946257 z " />
          <rect
             y="88.956284"
             x="433.9838"
             height="62.629452"
             width="85.862961"
             id="rect5191"
             style="fill:#000000;fill-opacity:1" />
          <path
             style="fill:#000000;fill-opacity:1;fill-rule:nonzero;stroke:none;stroke-width:1px;stroke-linecap:butt;stroke-linejoin:miter;stroke-opacity:1"
             id="path5165"
             d="M 467.47524,68.495777 C 470.47185,67.608657 475.97196,70.746757 479.28081,72.068717 C 490.4887,76.169197 500.26661,82.925827 510.09496,89.533347 C 518.35834,95.624707 525.88351,103.19281 531.72381,111.66831 C 533.79542,114.58056 535.26602,117.5524 534.30282,121.10501 C 530.93307,130.70839 523.66659,132.48172 515.11539,135.40382 C 503.86134,139.16649 491.9608,140.56852 480.14754,141.06654 C 477.29316,141.25758 474.4407,141.10603 471.61418,140.73123 L 475.8411,133.87685 C 478.57549,134.26292 481.32579,134.45592 484.09244,134.35538 C 495.87177,134.22974 507.64651,132.62127 518.79158,128.68527 C 522.00732,127.55214 525.25621,126.43409 528.33837,124.96515 C 529.80006,124.26852 533.25357,120.8975 532.36867,122.25351 C 531.01192,124.33259 529.59948,126.37483 528.22498,128.44222 C 527.94547,128.86263 529.42041,126.88464 528.97827,127.1283 C 530.1207,123.72194 529.11782,120.90944 527.13575,117.91931 C 521.70779,109.1915 513.91522,102.06658 505.80998,95.864607 C 496.2365,88.936917 486.28843,82.590567 475.13068,78.511037 C 471.55711,77.066257 467.11605,74.522307 463.3245,75.514297 L 467.47524,68.495777 z " />
          <rect
             y="88.198669"
             x="469.21289"
             height="62.629452"
             width="85.862961"
             id="rect5193"
             style="fill:#000000;fill-opacity:1" />
          <path
             transform="translate(373.7535,-44.41967)"
             d="M 96.469564 196.2579 A 18.182745 17.172594 0 1 1  60.104074,196.2579 A 18.182745 17.172594 0 1 1  96.469564 196.2579 z"
             sodipodi:ry="17.172594"
             sodipodi:rx="18.182745"
             sodipodi:cy="196.2579"
             sodipodi:cx="78.286819"
             id="path5195"
             style="fill:#000000;fill-opacity:1"
             sodipodi:type="arc" />
          <path
             transform="translate(458.6063,-44.41967)"
             d="M 96.469564 196.2579 A 18.182745 17.172594 0 1 1  60.104074,196.2579 A 18.182745 17.172594 0 1 1  96.469564 196.2579 z"
             sodipodi:ry="17.172594"
             sodipodi:rx="18.182745"
             sodipodi:cy="196.2579"
             sodipodi:cx="78.286819"
             id="path5197"
             style="fill:#000000;fill-opacity:1"
             sodipodi:type="arc" />
          <rect
             y="106.38142"
             x="451.78775"
             height="62.629452"
             width="85.862961"
             id="rect5199"
             style="fill:#000000;fill-opacity:1" />
          <g
             id="g5201"
             style="fill:#eb00e1;fill-opacity:1"
             transform="matrix(0.923556,0,0,0.903745,384.609,-87.16326)">
            <rect
               y="179.08531"
               x="74.751289"
               height="62.629452"
               width="85.862961"
               id="rect5203"
               style="fill:#eb00e1;fill-opacity:1" />
            <path
               transform="translate(-2.272843,0)"
               d="M 96.469564 196.2579 A 18.182745 17.172594 0 1 1  60.104074,196.2579 A 18.182745 17.172594 0 1 1  96.469564 196.2579 z"
               sodipodi:ry="17.172594"
               sodipodi:rx="18.182745"
               sodipodi:cy="196.2579"
               sodipodi:cx="78.286819"
               id="path5205"
               style="fill:#eb00e1;fill-opacity:1"
               sodipodi:type="arc" />
            <path
               transform="translate(82.57998,-5.273209e-6)"
               d="M 96.469564 196.2579 A 18.182745 17.172594 0 1 1  60.104074,196.2579 A 18.182745 17.172594 0 1 1  96.469564 196.2579 z"
               sodipodi:ry="17.172594"
               sodipodi:rx="18.182745"
               sodipodi:cy="196.2579"
               sodipodi:cx="78.286819"
               id="path5207"
               style="fill:#eb00e1;fill-opacity:1"
               sodipodi:type="arc" />
            <rect
               y="195.50029"
               x="57.704964"
               height="62.629452"
               width="85.862961"
               id="rect5209"
               style="fill:#eb00e1;fill-opacity:1" />
            <rect
               y="194.74268"
               x="92.934036"
               height="62.629452"
               width="85.862961"
               id="rect5211"
               style="fill:#eb00e1;fill-opacity:1" />
            <path
               transform="translate(-2.525387,62.12438)"
               d="M 96.469564 196.2579 A 18.182745 17.172594 0 1 1  60.104074,196.2579 A 18.182745 17.172594 0 1 1  96.469564 196.2579 z"
               sodipodi:ry="17.172594"
               sodipodi:rx="18.182745"
               sodipodi:cy="196.2579"
               sodipodi:cx="78.286819"
               id="path5213"
               style="fill:#eb00e1;fill-opacity:1"
               sodipodi:type="arc" />
            <path
               transform="translate(82.3274,62.12438)"
               d="M 96.469564 196.2579 A 18.182745 17.172594 0 1 1  60.104074,196.2579 A 18.182745 17.172594 0 1 1  96.469564 196.2579 z"
               sodipodi:ry="17.172594"
               sodipodi:rx="18.182745"
               sodipodi:cy="196.2579"
               sodipodi:cx="78.286819"
               id="path5215"
               style="fill:#eb00e1;fill-opacity:1"
               sodipodi:type="arc" />
            <rect
               y="212.92543"
               x="75.508904"
               height="62.629452"
               width="85.862961"
               id="rect5217"
               style="fill:#eb00e1;fill-opacity:1" />
          </g>
          <path
             d="M 462.83238,81.710065 C 472.21335,92.770844 476.08929,108.36472 475.90507,122.64423 C 475.37952,130.46962 474.65405,138.29458 473.61409,146.07026 L 468.4701,152.09069 C 469.88359,144.22122 470.76762,136.25484 471.23346,128.27432 C 471.46057,114.58406 468.49381,98.932768 458.68164,88.728583 L 462.83238,81.710065 z "
             id="path5279"
             style="fill:#000000;fill-opacity:1;fill-rule:nonzero;stroke:none;stroke-width:1px;stroke-linecap:butt;stroke-linejoin:miter;stroke-opacity:1" />
          <path
             d="M 468.54666,87.781493 C 481.64504,90.118606 494.16171,96.541418 505.87361,102.69295 C 511.96272,107.01641 529.34084,114.6666 528.47644,124.45856 C 528.11194,128.58759 522.90181,134.30821 521.41282,136.46331 C 508.3237,147.38082 488.98013,147.70052 472.70928,147.51908 C 470.52295,147.49081 468.3379,147.413 466.15288,147.3372 L 470.23498,140.54542 C 472.3296,140.76367 474.42417,140.98722 476.52739,141.10908 C 492.53345,141.9468 512.27081,140.97586 524.65631,129.60024 C 523.7343,131.04783 522.84468,132.51658 521.89027,133.94302 C 520.66228,135.77836 524.00467,129.47405 523.14802,127.43872 C 519.42964,118.60405 509.60067,113.38607 501.95622,108.63096 C 490.52203,102.40727 477.62305,95.421673 464.39592,94.800012 L 468.54666,87.781493 z "
             id="path5283"
             style="fill:#000000;fill-opacity:1;fill-rule:nonzero;stroke:none;stroke-width:1px;stroke-linecap:butt;stroke-linejoin:miter;stroke-opacity:1" />
        </g>
      </g>
      <path
         d="M 388.69583,587.38239 C 395.249,584.48433 400.20636,578.73233 405.26446,573.37226 C 410.86245,568.23784 416.45626,563.09473 422.57968,558.80723 C 428.38849,555.4015 434.82447,553.40086 441.10082,551.12629 C 448.69823,547.88565 456.88479,546.92998 465.14953,546.15897 C 479.1571,544.82097 493.33186,544.12108 507.58792,544.28687 C 517.01049,544.60326 526.49289,545.13201 536.01039,546.91126 C 541.26463,547.4176 546.33814,549.21658 551.42814,551.63321 C 555.7524,553.44346 560.09619,554.89406 564.38772,556.87873 C 568.21246,558.55704 571.91762,560.67235 575.57126,563.00679 C 578.64927,564.71569 581.37716,567.21065 584.097,569.72615 C 586.86247,572.39828 589.16469,575.66093 591.31421,579.02133 C 597.52786,590.76209 592.80184,601.56812 591.11655,613.62536 C 589.89126,617.65848 587.76668,620.83019 585.35489,623.75999 C 582.84435,626.76312 580.44791,629.71046 577.46074,632.04151 C 574.22421,634.02071 571.0337,636.02749 567.5488,637.48603 C 564.04108,639.93986 560.12745,641.46434 556.02412,642.39486 C 551.49283,642.65695 547.54824,640.34235 543.54157,637.1714 C 540.01582,634.13175 537.30672,630.35814 534.92465,626.08656 C 533.04982,622.2485 531.01891,618.47143 528.99983,614.76105 C 524.8762,611.68929 520.22368,613.30012 516.0289,613.92763 C 501.1481,615.46967 486.38876,617.85588 472.16714,621.98754 C 456.85245,626.79022 440.93373,629.58371 426.99621,637.96577 C 417.58161,643.52024 408.69768,650.07506 399.813,656.58952 L 401.19393,634.98582 C 410.10106,628.70308 419.13052,622.61629 428.41584,617.04232 C 442.48422,608.78379 458.68571,606.26256 473.96492,601.11368 C 488.39403,597.38416 503.16711,594.82471 517.99892,592.65295 C 522.82857,591.89873 528.0323,590.19628 532.8641,593.95175 C 535.45019,597.35573 537.20833,601.52722 539.14887,605.46772 C 541.4134,609.52112 543.67405,613.36458 547.07019,616.27392 C 550.56664,619.23861 554.01442,621.27663 558.0251,620.92445 C 561.98727,619.79684 565.69554,618.07033 569.22991,615.88378 C 572.5168,614.30897 575.70938,612.47932 578.69774,610.31221 C 581.49329,607.8472 583.83479,604.81693 586.36246,601.9659 C 588.40489,598.86044 590.45905,595.77207 591.14301,591.62002 C 587.53958,619.54547 591.32108,612.57356 587.21525,599.74036 C 585.14457,596.48984 583.07418,593.1859 580.38043,590.60954 C 577.87441,588.14921 575.30795,585.78772 572.41765,584.13422 C 568.84465,581.76161 565.20871,579.667 561.42816,578.05441 C 557.16352,576.04005 552.84284,574.5438 548.53808,572.73071 C 543.57361,570.42345 538.64518,568.66306 533.523,568.10652 C 524.12463,566.25857 514.7277,565.42978 505.40677,564.98018 C 491.18449,564.95067 477.03696,565.57218 463.08973,567.17715 C 454.91552,567.9276 446.91693,569.46016 439.38006,572.49602 C 433.19948,574.76726 426.82559,576.72269 421.21375,580.3313 C 415.19219,584.58364 409.66642,589.70859 404.23057,594.87941 C 398.9525,600.3846 393.6404,605.94412 386.94603,609.14236 L 388.69583,587.38239 z "
         id="path10748"
         style="fill:#000000;fill-opacity:1;fill-rule:nonzero;stroke:none;stroke-width:1px;stroke-linecap:butt;stroke-linejoin:miter;stroke-opacity:1" />
      <g
         id="g11191"
         transform="matrix(0.755439,-0.102323,3.477635e-2,0.256748,354.5125,816.8586)">
        <g
           style="fill:#000000;fill-opacity:1"
           transform="matrix(1.026945,0,0,1.030413,-207.2507,93.02823)"
           id="g11193">
          <rect
             style="fill:#000000;fill-opacity:1"
             id="rect11195"
             width="66.428574"
             height="66.428574"
             x="375.80005"
             y="14.165428"
             transform="matrix(0.707107,0.707107,-0.707107,0.707107,0,0)" />
          <rect
             style="fill:#000000;fill-opacity:1"
             id="rect11197"
             width="131.78572"
             height="93.928566"
             x="255.89287"
             y="275.75504" />
        </g>
        <g
           transform="translate(-198.9515,102.8433)"
           style="fill:#00e6e8;fill-opacity:1"
           id="g11199">
          <rect
             transform="matrix(0.707107,0.707107,-0.707107,0.707107,0,0)"
             y="14.165428"
             x="375.80005"
             height="66.428574"
             width="66.428574"
             id="rect11201"
             style="fill:#00e6e8;fill-opacity:1" />
          <rect
             y="275.75504"
             x="255.89287"
             height="93.928566"
             width="131.78572"
             id="rect11203"
             style="fill:#00e6e8;fill-opacity:1" />
        </g>
      </g>
    </g>
  </g>
</svg>
