<?xml version="1.0" encoding="UTF-8" standalone="no"?>
<!-- Created with Inkscape (http://www.inkscape.org/) -->
<svg
   xmlns:svg="http://www.w3.org/2000/svg"
   xmlns="http://www.w3.org/2000/svg"
   version="1.0"
   width="500"
   height="500"
   id="svg11915">
  <defs
     id="defs11917" />
  <g
     id="layer1">
    <g
       transform="matrix(1.334794,0,0,0.453652,133.8764,216.2703)"
       id="g8365">
      <g
         transform="matrix(1.026945,0,0,1.030413,-207.2507,93.02823)"
         style="fill:#000000;fill-opacity:1"
         id="g8353">
        <rect
           width="66.428574"
           height="66.428574"
           x="375.80005"
           y="14.165428"
           transform="matrix(0.707107,0.707107,-0.707107,0.707107,0,0)"
           style="fill:#000000;fill-opacity:1"
           id="rect8355" />
        <rect
           width="131.78572"
           height="93.928566"
           x="255.89287"
           y="275.75504"
           style="fill:#000000;fill-opacity:1"
           id="rect8357" />
      </g>
      <g
         transform="translate(-198.9515,102.8433)"
         style="fill:#00e6e8;fill-opacity:1"
         id="g8359">
        <rect
           width="66.428574"
           height="66.428574"
           x="375.80005"
           y="14.165428"
           transform="matrix(0.707107,0.707107,-0.707107,0.707107,0,0)"
           style="fill:#00e6e8;fill-opacity:1"
           id="rect8361" />
        <rect
           width="131.78572"
           height="93.928566"
           x="255.89287"
           y="275.75504"
           style="fill:#00e6e8;fill-opacity:1"
           id="rect8363" />
      </g>
    </g>
    <g
       transform="matrix(1.004922,0.670421,-0.221306,0.351645,360.584,-55.18339)"
       id="g9347">
      <g
         transform="matrix(1.026945,0,0,1.030413,-207.2507,93.02823)"
         style="fill:#000000;fill-opacity:1"
         id="g9349">
        <rect
           width="66.428574"
           height="66.428574"
           x="375.80005"
           y="14.165428"
           transform="matrix(0.707107,0.707107,-0.707107,0.707107,0,0)"
           style="fill:#000000;fill-opacity:1"
           id="rect9351" />
        <rect
           width="131.78572"
           height="93.928566"
           x="255.89287"
           y="275.75504"
           style="fill:#000000;fill-opacity:1"
           id="rect9353" />
      </g>
      <g
         transform="translate(-198.9515,102.8433)"
         style="fill:#00e6e8;fill-opacity:1"
         id="g9355">
        <rect
           width="66.428574"
           height="66.428574"
           x="375.80005"
           y="14.165428"
           transform="matrix(0.707107,0.707107,-0.707107,0.707107,0,0)"
           style="fill:#00e6e8;fill-opacity:1"
           id="rect9357" />
        <rect
           width="131.78572"
           height="93.928566"
           x="255.89287"
           y="275.75504"
           style="fill:#00e6e8;fill-opacity:1"
           id="rect9359" />
      </g>
    </g>
    <g
       transform="matrix(0.764982,0,0,0.764982,296.6131,-46.4172)"
       id="g5558">
      <g
         transform="translate(66.02742,128.2197)"
         style="fill:#000000;fill-opacity:1"
         id="g5450">
        <rect
           width="85.862961"
           height="62.629452"
           x="74.751289"
           y="179.08531"
           style="fill:#000000;fill-opacity:1"
           id="rect5452" />
        <path
           d="M 96.469564 196.2579 A 18.182745 17.172594 0 1 1  60.104074,196.2579 A 18.182745 17.172594 0 1 1  96.469564 196.2579 z"
           transform="translate(-2.272843,0)"
           style="fill:#000000;fill-opacity:1"
           id="path5454" />
        <path
           d="M 96.469564 196.2579 A 18.182745 17.172594 0 1 1  60.104074,196.2579 A 18.182745 17.172594 0 1 1  96.469564 196.2579 z"
           transform="translate(82.57998,-5.273209e-6)"
           style="fill:#000000;fill-opacity:1"
           id="path5456" />
        <rect
           width="85.862961"
           height="62.629452"
           x="57.704964"
           y="195.50029"
           style="fill:#000000;fill-opacity:1"
           id="rect5458" />
        <rect
           width="85.862961"
           height="62.629452"
           x="92.934036"
           y="194.74268"
           style="fill:#000000;fill-opacity:1"
           id="rect5460" />
        <path
           d="M 96.469564 196.2579 A 18.182745 17.172594 0 1 1  60.104074,196.2579 A 18.182745 17.172594 0 1 1  96.469564 196.2579 z"
           transform="translate(-2.525387,62.12438)"
           style="fill:#000000;fill-opacity:1"
           id="path5462" />
        <path
           d="M 96.469564 196.2579 A 18.182745 17.172594 0 1 1  60.104074,196.2579 A 18.182745 17.172594 0 1 1  96.469564 196.2579 z"
           transform="translate(82.3274,62.12438)"
           style="fill:#000000;fill-opacity:1"
           id="path5464" />
        <rect
           width="85.862961"
           height="62.629452"
           x="75.508904"
           y="212.92543"
           style="fill:#000000;fill-opacity:1"
           id="rect5466" />
      </g>
      <rect
         width="85.862961"
         height="62.629452"
         x="142.82172"
         y="311.99002"
         style="fill:#000000;fill-opacity:1"
         id="rect5468" />
      <path
         d="M 96.469564 196.2579 A 18.182745 17.172594 0 1 1  60.104074,196.2579 A 18.182745 17.172594 0 1 1  96.469564 196.2579 z"
         transform="translate(65.79752,132.9047)"
         style="fill:#000000;fill-opacity:1"
         id="path5470" />
      <path
         d="M 96.469564 196.2579 A 18.182745 17.172594 0 1 1  60.104074,196.2579 A 18.182745 17.172594 0 1 1  96.469564 196.2579 z"
         transform="translate(150.6503,132.9047)"
         style="fill:#000000;fill-opacity:1"
         id="path5472" />
      <rect
         width="85.862961"
         height="62.629452"
         x="125.7754"
         y="328.405"
         style="fill:#000000;fill-opacity:1"
         id="rect5474" />
      <rect
         width="85.862961"
         height="62.629452"
         x="161.00446"
         y="327.64737"
         style="fill:#000000;fill-opacity:1"
         id="rect5476" />
      <path
         d="M 96.469564 196.2579 A 18.182745 17.172594 0 1 1  60.104074,196.2579 A 18.182745 17.172594 0 1 1  96.469564 196.2579 z"
         transform="translate(65.54502,195.029)"
         style="fill:#000000;fill-opacity:1"
         id="path5478" />
      <path
         d="M 96.469564 196.2579 A 18.182745 17.172594 0 1 1  60.104074,196.2579 A 18.182745 17.172594 0 1 1  96.469564 196.2579 z"
         transform="translate(150.3978,195.029)"
         style="fill:#000000;fill-opacity:1"
         id="path5480" />
      <rect
         width="85.862961"
         height="62.629452"
         x="143.57932"
         y="345.83014"
         style="fill:#000000;fill-opacity:1"
         id="rect5482" />
      <g
         transform="matrix(0.923556,0,0,0.903745,76.40052,152.2854)"
         style="fill:#eb00e1;fill-opacity:1"
         id="g5484">
        <rect
           width="85.862961"
           height="62.629452"
           x="74.751289"
           y="179.08531"
           style="fill:#eb00e1;fill-opacity:1"
           id="rect5486" />
        <path
           d="M 96.469564 196.2579 A 18.182745 17.172594 0 1 1  60.104074,196.2579 A 18.182745 17.172594 0 1 1  96.469564 196.2579 z"
           transform="translate(-2.272843,0)"
           style="fill:#eb00e1;fill-opacity:1"
           id="path5488" />
        <path
           d="M 96.469564 196.2579 A 18.182745 17.172594 0 1 1  60.104074,196.2579 A 18.182745 17.172594 0 1 1  96.469564 196.2579 z"
           transform="translate(82.57998,-5.273209e-6)"
           style="fill:#eb00e1;fill-opacity:1"
           id="path5490" />
        <rect
           width="85.862961"
           height="62.629452"
           x="57.704964"
           y="195.50029"
           style="fill:#eb00e1;fill-opacity:1"
           id="rect5492" />
        <rect
           width="85.862961"
           height="62.629452"
           x="92.934036"
           y="194.74268"
           style="fill:#eb00e1;fill-opacity:1"
           id="rect5494" />
        <path
           d="M 96.469564 196.2579 A 18.182745 17.172594 0 1 1  60.104074,196.2579 A 18.182745 17.172594 0 1 1  96.469564 196.2579 z"
           transform="translate(-2.525387,62.12438)"
           style="fill:#eb00e1;fill-opacity:1"
           id="path5496" />
        <path
           d="M 96.469564 196.2579 A 18.182745 17.172594 0 1 1  60.104074,196.2579 A 18.182745 17.172594 0 1 1  96.469564 196.2579 z"
           transform="translate(82.3274,62.12438)"
           style="fill:#eb00e1;fill-opacity:1"
           id="path5498" />
        <rect
           width="85.862961"
           height="62.629452"
           x="75.508904"
           y="212.92543"
           style="fill:#eb00e1;fill-opacity:1"
           id="rect5500" />
      </g>
      <path
         d="M 157.0437,324.13012 C 165.92587,330.96556 169.18394,345.32944 172.28951,355.78654 C 174.15859,363.62475 175.54123,371.65755 175.85795,379.72505 C 175.87607,380.64381 175.87314,381.56276 175.87747,382.48163 L 168.60979,391.25863 C 168.61837,390.33593 168.63249,389.41324 168.62966,388.49047 C 168.58537,380.33352 167.29118,372.31703 165.57455,364.35794 C 163.10507,354.43021 159.78314,340.11934 151.17366,334.0558 L 157.0437,324.13012 z "
         style="fill:#000000;fill-opacity:1;fill-rule:nonzero;stroke:none;stroke-width:1px;stroke-linecap:butt;stroke-linejoin:miter;stroke-opacity:1"
         id="path5506" />
      <path
         d="M 164.73329,326.66798 C 178.89543,329.17363 193.20399,332.25704 207.67762,331.58678 C 208.36128,331.55763 209.0417,331.48538 209.72374,331.43468 L 204.00071,341.21707 C 203.82073,341.21721 202.03071,341.24882 201.99245,341.21864 C 187.52803,340.58486 173.28257,337.60187 158.87802,336.5687 L 164.73329,326.66798 z "
         style="fill:#000000;fill-opacity:1;fill-rule:nonzero;stroke:none;stroke-width:1px;stroke-linecap:butt;stroke-linejoin:miter;stroke-opacity:1"
         id="path5508" />
      <path
         d="M 171.74763,349.89525 C 175.17719,349.46596 178.77726,349.76455 182.22903,350.13424 C 186.4237,350.55365 190.60036,351.1679 194.81055,351.4229 C 197.60517,351.80795 200.41088,351.91282 203.19997,352.31098 L 197.26676,362.04921 C 194.51986,361.65413 191.7438,361.52941 188.99428,361.13816 C 184.76879,360.85381 180.57757,360.2394 176.36557,359.817 C 172.88088,359.51948 169.34473,359.22395 165.88498,359.80845 L 171.74763,349.89525 z "
         style="fill:#000000;fill-opacity:1;fill-rule:nonzero;stroke:none;stroke-width:1px;stroke-linecap:butt;stroke-linejoin:miter;stroke-opacity:1"
         id="path5516" />
      <path
         d="M 176.74167,379.18343 C 187.02038,378.61025 197.34059,378.06427 207.56265,376.673 C 210.77244,376.28564 213.94193,375.64027 217.11716,375.04415 L 211.53491,384.83349 C 208.4251,385.26077 205.31693,385.70644 202.19264,386.01765 C 191.76923,387.21555 181.27463,387.7794 170.87164,389.10912 L 176.74167,379.18343 z "
         style="fill:#000000;fill-opacity:1;fill-rule:nonzero;stroke:none;stroke-width:1px;stroke-linecap:butt;stroke-linejoin:miter;stroke-opacity:1"
         id="path5518" />
    </g>
    <g
       transform="matrix(-0.918651,0.764483,-0.251026,-0.323159,340.7805,215.385)"
       id="g9333">
      <g
         transform="matrix(1.026945,0,0,1.030413,-207.2507,93.02823)"
         style="fill:#000000;fill-opacity:1"
         id="g9335">
        <rect
           width="66.428574"
           height="66.428574"
           x="375.80005"
           y="14.165428"
           transform="matrix(0.707107,0.707107,-0.707107,0.707107,0,0)"
           style="fill:#000000;fill-opacity:1"
           id="rect9337" />
        <rect
           width="131.78572"
           height="93.928566"
           x="255.89287"
           y="275.75504"
           style="fill:#000000;fill-opacity:1"
           id="rect9339" />
      </g>
      <g
         transform="translate(-198.9515,102.8433)"
         style="fill:#00e6e8;fill-opacity:1"
         id="g9341">
        <rect
           width="66.428574"
           height="66.428574"
           x="375.80005"
           y="14.165428"
           transform="matrix(0.707107,0.707107,-0.707107,0.707107,0,0)"
           style="fill:#00e6e8;fill-opacity:1"
           id="rect9343" />
        <rect
           width="131.78572"
           height="93.928566"
           x="255.89287"
           y="275.75504"
           style="fill:#00e6e8;fill-opacity:1"
           id="rect9345" />
      </g>
    </g>
    <g
       transform="matrix(0.764982,0,0,0.764982,-367.8284,327.331)"
       id="g5652">
      <g
         transform="translate(531.3787,-124.4433)"
         style="fill:#000000;fill-opacity:1"
         id="g5223">
        <rect
           width="85.862961"
           height="62.629452"
           x="74.751289"
           y="179.08531"
           style="fill:#000000;fill-opacity:1"
           id="rect5225" />
        <path
           d="M 96.469564 196.2579 A 18.182745 17.172594 0 1 1  60.104074,196.2579 A 18.182745 17.172594 0 1 1  96.469564 196.2579 z"
           transform="translate(-2.272843,0)"
           style="fill:#000000;fill-opacity:1"
           id="path5227" />
        <path
           d="M 96.469564 196.2579 A 18.182745 17.172594 0 1 1  60.104074,196.2579 A 18.182745 17.172594 0 1 1  96.469564 196.2579 z"
           transform="translate(82.57998,-5.273209e-6)"
           style="fill:#000000;fill-opacity:1"
           id="path5229" />
        <rect
           width="85.862961"
           height="62.629452"
           x="57.704964"
           y="195.50029"
           style="fill:#000000;fill-opacity:1"
           id="rect5231" />
        <rect
           width="85.862961"
           height="62.629452"
           x="92.934036"
           y="194.74268"
           style="fill:#000000;fill-opacity:1"
           id="rect5233" />
        <path
           d="M 96.469564 196.2579 A 18.182745 17.172594 0 1 1  60.104074,196.2579 A 18.182745 17.172594 0 1 1  96.469564 196.2579 z"
           transform="translate(-2.525387,62.12438)"
           style="fill:#000000;fill-opacity:1"
           id="path5235" />
        <path
           d="M 96.469564 196.2579 A 18.182745 17.172594 0 1 1  60.104074,196.2579 A 18.182745 17.172594 0 1 1  96.469564 196.2579 z"
           transform="translate(82.3274,62.12438)"
           style="fill:#000000;fill-opacity:1"
           id="path5237" />
        <rect
           width="85.862961"
           height="62.629452"
           x="75.508904"
           y="212.92543"
           style="fill:#000000;fill-opacity:1"
           id="rect5239" />
      </g>
      <rect
         width="85.862961"
         height="62.629452"
         x="608.17297"
         y="59.327019"
         style="fill:#000000;fill-opacity:1"
         id="rect5241" />
      <path
         d="M 96.469564 196.2579 A 18.182745 17.172594 0 1 1  60.104074,196.2579 A 18.182745 17.172594 0 1 1  96.469564 196.2579 z"
         transform="translate(531.1488,-119.7584)"
         style="fill:#000000;fill-opacity:1"
         id="path5243" />
      <path
         d="M 96.469564 196.2579 A 18.182745 17.172594 0 1 1  60.104074,196.2579 A 18.182745 17.172594 0 1 1  96.469564 196.2579 z"
         transform="translate(616.0016,-119.7584)"
         style="fill:#000000;fill-opacity:1"
         id="path5245" />
      <rect
         width="85.862961"
         height="62.629452"
         x="591.12665"
         y="75.741997"
         style="fill:#000000;fill-opacity:1"
         id="rect5247" />
      <rect
         width="85.862961"
         height="62.629452"
         x="626.35577"
         y="74.984383"
         style="fill:#000000;fill-opacity:1"
         id="rect5249" />
      <path
         d="M 96.469564 196.2579 A 18.182745 17.172594 0 1 1  60.104074,196.2579 A 18.182745 17.172594 0 1 1  96.469564 196.2579 z"
         transform="translate(530.8963,-57.63395)"
         style="fill:#000000;fill-opacity:1"
         id="path5251" />
      <path
         d="M 96.469564 196.2579 A 18.182745 17.172594 0 1 1  60.104074,196.2579 A 18.182745 17.172594 0 1 1  96.469564 196.2579 z"
         transform="translate(615.7491,-57.63395)"
         style="fill:#000000;fill-opacity:1"
         id="path5253" />
      <rect
         width="85.862961"
         height="62.629452"
         x="608.9306"
         y="93.167137"
         style="fill:#000000;fill-opacity:1"
         id="rect5255" />
      <g
         transform="matrix(0.923556,0,0,0.903745,541.7518,-100.3776)"
         style="fill:#eb00e1;fill-opacity:1"
         id="g5257">
        <rect
           width="85.862961"
           height="62.629452"
           x="74.751289"
           y="179.08531"
           style="fill:#eb00e1;fill-opacity:1"
           id="rect5259" />
        <path
           d="M 96.469564 196.2579 A 18.182745 17.172594 0 1 1  60.104074,196.2579 A 18.182745 17.172594 0 1 1  96.469564 196.2579 z"
           transform="translate(-2.272843,0)"
           style="fill:#eb00e1;fill-opacity:1"
           id="path5261" />
        <path
           d="M 96.469564 196.2579 A 18.182745 17.172594 0 1 1  60.104074,196.2579 A 18.182745 17.172594 0 1 1  96.469564 196.2579 z"
           transform="translate(82.57998,-5.273209e-6)"
           style="fill:#eb00e1;fill-opacity:1"
           id="path5263" />
        <rect
           width="85.862961"
           height="62.629452"
           x="57.704964"
           y="195.50029"
           style="fill:#eb00e1;fill-opacity:1"
           id="rect5265" />
        <rect
           width="85.862961"
           height="62.629452"
           x="92.934036"
           y="194.74268"
           style="fill:#eb00e1;fill-opacity:1"
           id="rect5267" />
        <path
           d="M 96.469564 196.2579 A 18.182745 17.172594 0 1 1  60.104074,196.2579 A 18.182745 17.172594 0 1 1  96.469564 196.2579 z"
           transform="translate(-2.525387,62.12438)"
           style="fill:#eb00e1;fill-opacity:1"
           id="path5269" />
        <path
           d="M 96.469564 196.2579 A 18.182745 17.172594 0 1 1  60.104074,196.2579 A 18.182745 17.172594 0 1 1  96.469564 196.2579 z"
           transform="translate(82.3274,62.12438)"
           style="fill:#eb00e1;fill-opacity:1"
           id="path5271" />
        <rect
           width="85.862961"
           height="62.629452"
           x="75.508904"
           y="212.92543"
           style="fill:#eb00e1;fill-opacity:1"
           id="rect5273" />
      </g>
      <path
         d="M 660.94978,92.748611 C 660.16237,89.150791 658.69281,85.833071 656.02234,83.262501 C 653.45302,81.171121 650.48531,79.998661 647.30607,79.217651 C 635.00377,78.940101 660.05635,78.340581 650.33315,79.196891 C 646.40261,80.587491 643.54227,83.976231 641.34512,87.402111 C 639.28236,91.460331 638.85432,95.974931 639.39853,100.42909 C 639.68834,105.07829 641.41559,109.34754 642.88653,113.70518 C 644.2992,117.23073 646.24874,120.48535 648.3753,123.61633 C 649.84276,126.03359 651.81343,127.10891 654.50353,127.70136 C 665.73553,127.7648 640.44195,128.54236 651.10364,127.63071 C 653.67835,127.15237 656.10524,126.0199 658.42864,124.84271 C 660.76091,123.50151 662.0951,121.54113 662.91146,119.07278 C 663.03072,116.78751 663.34537,114.52276 663.82004,112.28553 C 663.95549,111.70457 663.94123,111.10505 664.0017,110.51609 L 675.43203,110.57376 C 675.37436,111.21797 675.38868,111.87104 675.25883,112.50853 C 674.73391,114.7269 674.45543,116.99085 674.33259,119.26747 C 673.66704,122.0593 672.19782,124.34026 669.77421,125.95889 C 667.49898,127.42438 664.95917,128.41135 662.38815,129.25392 C 656.1059,130.34421 649.51585,129.99716 643.19711,129.24765 C 640.49164,128.26821 638.46771,126.88209 637.01159,124.31805 C 634.87116,121.0989 632.99073,117.69754 631.59506,114.08433 C 630.09905,109.66173 628.40224,105.31344 628.06572,100.60165 C 627.47742,95.898371 628.06407,91.155151 630.0788,86.824691 C 632.29519,83.133831 635.1605,79.718571 639.02501,77.700351 C 645.3204,76.156221 652.17559,76.857831 658.59428,77.689881 C 661.79348,78.699711 664.85229,80.007511 667.34807,82.332451 C 670.06047,85.171051 671.40508,89.043741 672.48132,92.748611 L 660.94978,92.748611 z "
         style="fill:#000000;fill-opacity:1;fill-rule:nonzero;stroke:none;stroke-width:1px;stroke-linecap:butt;stroke-linejoin:miter;stroke-opacity:1"
         id="path1527" />
    </g>
    <g
       transform="matrix(-1.411788,-0.787449,0.220982,-0.39619,279.084,556.9728)"
       id="g9375">
      <g
         transform="matrix(1.026945,0,0,1.030413,-207.2507,93.02823)"
         style="fill:#000000;fill-opacity:1"
         id="g9377">
        <rect
           width="66.428574"
           height="66.428574"
           x="375.80005"
           y="14.165428"
           transform="matrix(0.707107,0.707107,-0.707107,0.707107,0,0)"
           style="fill:#000000;fill-opacity:1"
           id="rect9379" />
        <rect
           width="131.78572"
           height="93.928566"
           x="255.89287"
           y="275.75504"
           style="fill:#000000;fill-opacity:1"
           id="rect9381" />
      </g>
      <g
         transform="translate(-198.9515,102.8433)"
         style="fill:#00e6e8;fill-opacity:1"
         id="g9383">
        <rect
           width="66.428574"
           height="66.428574"
           x="375.80005"
           y="14.165428"
           transform="matrix(0.707107,0.707107,-0.707107,0.707107,0,0)"
           style="fill:#00e6e8;fill-opacity:1"
           id="rect9385" />
        <rect
           width="131.78572"
           height="93.928566"
           x="255.89287"
           y="275.75504"
           style="fill:#00e6e8;fill-opacity:1"
           id="rect9387" />
      </g>
    </g>
    <g
       transform="matrix(0.764982,0,0,0.764982,-141.6123,54.12333)"
       id="g5590">
      <g
         transform="translate(164.9501,-6.943245)"
         style="fill:#000000;fill-opacity:1"
         id="g5087">
        <rect
           width="85.862961"
           height="62.629452"
           x="74.751289"
           y="179.08531"
           style="fill:#000000;fill-opacity:1"
           id="rect5089" />
        <path
           d="M 96.469564 196.2579 A 18.182745 17.172594 0 1 1  60.104074,196.2579 A 18.182745 17.172594 0 1 1  96.469564 196.2579 z"
           transform="translate(-2.272843,0)"
           style="fill:#000000;fill-opacity:1"
           id="path5091" />
        <path
           d="M 96.469564 196.2579 A 18.182745 17.172594 0 1 1  60.104074,196.2579 A 18.182745 17.172594 0 1 1  96.469564 196.2579 z"
           transform="translate(82.57998,-5.273209e-6)"
           style="fill:#000000;fill-opacity:1"
           id="path5093" />
        <rect
           width="85.862961"
           height="62.629452"
           x="57.704964"
           y="195.50029"
           style="fill:#000000;fill-opacity:1"
           id="rect5095" />
        <rect
           width="85.862961"
           height="62.629452"
           x="92.934036"
           y="194.74268"
           style="fill:#000000;fill-opacity:1"
           id="rect5097" />
        <path
           d="M 96.469564 196.2579 A 18.182745 17.172594 0 1 1  60.104074,196.2579 A 18.182745 17.172594 0 1 1  96.469564 196.2579 z"
           transform="translate(-2.525387,62.12438)"
           style="fill:#000000;fill-opacity:1"
           id="path5099" />
        <path
           d="M 96.469564 196.2579 A 18.182745 17.172594 0 1 1  60.104074,196.2579 A 18.182745 17.172594 0 1 1  96.469564 196.2579 z"
           transform="translate(82.3274,62.12438)"
           style="fill:#000000;fill-opacity:1"
           id="path5101" />
        <rect
           width="85.862961"
           height="62.629452"
           x="75.508904"
           y="212.92543"
           style="fill:#000000;fill-opacity:1"
           id="rect5103" />
      </g>
      <rect
         width="85.862961"
         height="62.629452"
         x="241.7444"
         y="176.82703"
         style="fill:#000000;fill-opacity:1"
         id="rect5105" />
      <path
         d="M 96.469564 196.2579 A 18.182745 17.172594 0 1 1  60.104074,196.2579 A 18.182745 17.172594 0 1 1  96.469564 196.2579 z"
         transform="translate(164.7202,-2.258301)"
         style="fill:#000000;fill-opacity:1"
         id="path5107" />
      <path
         d="M 96.469564 196.2579 A 18.182745 17.172594 0 1 1  60.104074,196.2579 A 18.182745 17.172594 0 1 1  96.469564 196.2579 z"
         transform="translate(249.573,-2.258301)"
         style="fill:#000000;fill-opacity:1"
         id="path5109" />
      <rect
         width="85.862961"
         height="62.629452"
         x="224.69807"
         y="193.242"
         style="fill:#000000;fill-opacity:1"
         id="rect5111" />
      <rect
         width="85.862961"
         height="62.629452"
         x="259.92715"
         y="192.48439"
         style="fill:#000000;fill-opacity:1"
         id="rect5113" />
      <path
         d="M 96.469564 196.2579 A 18.182745 17.172594 0 1 1  60.104074,196.2579 A 18.182745 17.172594 0 1 1  96.469564 196.2579 z"
         transform="translate(164.4677,59.86605)"
         style="fill:#000000;fill-opacity:1"
         id="path5115" />
      <path
         d="M 96.469564 196.2579 A 18.182745 17.172594 0 1 1  60.104074,196.2579 A 18.182745 17.172594 0 1 1  96.469564 196.2579 z"
         transform="translate(249.3205,59.86605)"
         style="fill:#000000;fill-opacity:1"
         id="path5117" />
      <rect
         width="85.862961"
         height="62.629452"
         x="242.50201"
         y="210.66714"
         style="fill:#000000;fill-opacity:1"
         id="rect5119" />
      <g
         transform="matrix(0.923556,0,0,0.903745,175.3232,17.12245)"
         style="fill:#eb00e1;fill-opacity:1"
         id="g5121">
        <rect
           width="85.862961"
           height="62.629452"
           x="74.751289"
           y="179.08531"
           style="fill:#eb00e1;fill-opacity:1"
           id="rect5123" />
        <path
           d="M 96.469564 196.2579 A 18.182745 17.172594 0 1 1  60.104074,196.2579 A 18.182745 17.172594 0 1 1  96.469564 196.2579 z"
           transform="translate(-2.272843,0)"
           style="fill:#eb00e1;fill-opacity:1"
           id="path5125" />
        <path
           d="M 96.469564 196.2579 A 18.182745 17.172594 0 1 1  60.104074,196.2579 A 18.182745 17.172594 0 1 1  96.469564 196.2579 z"
           transform="translate(82.57998,-5.273209e-6)"
           style="fill:#eb00e1;fill-opacity:1"
           id="path5127" />
        <rect
           width="85.862961"
           height="62.629452"
           x="57.704964"
           y="195.50029"
           style="fill:#eb00e1;fill-opacity:1"
           id="rect5129" />
        <rect
           width="85.862961"
           height="62.629452"
           x="92.934036"
           y="194.74268"
           style="fill:#eb00e1;fill-opacity:1"
           id="rect5131" />
        <path
           d="M 96.469564 196.2579 A 18.182745 17.172594 0 1 1  60.104074,196.2579 A 18.182745 17.172594 0 1 1  96.469564 196.2579 z"
           transform="translate(-2.525387,62.12438)"
           style="fill:#eb00e1;fill-opacity:1"
           id="path5133" />
        <path
           d="M 96.469564 196.2579 A 18.182745 17.172594 0 1 1  60.104074,196.2579 A 18.182745 17.172594 0 1 1  96.469564 196.2579 z"
           transform="translate(82.3274,62.12438)"
           style="fill:#eb00e1;fill-opacity:1"
           id="path5135" />
        <rect
           width="85.862961"
           height="62.629452"
           x="75.508904"
           y="212.92543"
           style="fill:#eb00e1;fill-opacity:1"
           id="rect5137" />
      </g>
      <path
         d="M 270.24154,198.70269 C 273.02698,213.4032 276.5103,227.97361 279.12553,242.71331 C 279.52306,245.22584 279.81128,247.60215 279.67572,250.1249 L 263.50309,249.96861 C 263.64658,247.59378 263.29986,245.31196 263.1413,242.92639 C 261.44166,227.92506 258.38942,213.1344 253.93347,198.70269 L 270.24154,198.70269 z "
         style="fill:#000000;fill-opacity:1;fill-rule:nonzero;stroke:none;stroke-width:1px;stroke-linecap:butt;stroke-linejoin:miter;stroke-opacity:1"
         id="path5143" />
      <path
         d="M 270.22659,199.48452 C 237.21895,203.60483 262.55219,196.41492 270.45775,194.67013 C 282.04629,193.25039 297.59678,190.37376 306.03956,200.38403 C 310.62856,207.237 308.90097,212.05648 303.51679,217.77918 C 300.14071,220.61139 296.01834,222.3767 291.98279,224.06898 C 288.88717,225.96104 267.45109,224.37205 280.09755,223.24813 C 291.18166,223.30678 307.78128,216.6892 314.6188,227.74731 C 316.69339,233.02374 315.16551,238.60871 312.24069,243.23522 C 307.92676,246.1139 302.47415,247.07617 297.35786,247.66559 C 288.29697,248.40601 279.27273,247.25718 270.24347,247.02373 L 286.18048,244.54489 C 303.66618,245.57286 269.52397,245.25883 281.40033,245.22437 C 286.43471,244.96957 291.51643,243.93517 296.13779,241.92135 C 299.06119,238.10673 300.72843,233.31454 298.55981,228.59656 C 296.62092,226.42625 287.67552,225.0633 290.58569,225.04137 C 319.04946,224.82688 302.07628,224.84139 295.62898,225.56549 C 288.08088,226.25236 264.02746,228.94929 275.92486,222.10988 C 279.94733,220.56477 283.9697,218.85451 287.60544,216.49771 C 292.70974,211.58802 294.55541,207.59722 290.10042,201.48265 C 286.82602,198.17793 272.42811,196.49318 277.08015,196.45688 C 303.53326,196.25054 292.07836,196.00191 286.20892,196.86343 C 274.60987,199.10566 266.85301,204.16581 254.11931,202.03566 L 270.22659,199.48452 z "
         style="fill:#000000;fill-opacity:1;fill-rule:nonzero;stroke:none;stroke-width:1px;stroke-linecap:butt;stroke-linejoin:miter;stroke-opacity:1"
         id="path5145" />
    </g>
    <g
       transform="matrix(-0.938284,-1.578102,-0.37278,0.221642,578.6549,318.1034)"
       id="g9305">
      <g
         transform="matrix(1.026945,0,0,1.030413,-207.2507,93.02823)"
         style="fill:#000000;fill-opacity:1"
         id="g9307">
        <rect
           width="66.428574"
           height="66.428574"
           x="375.80005"
           y="14.165428"
           transform="matrix(0.707107,0.707107,-0.707107,0.707107,0,0)"
           style="fill:#000000;fill-opacity:1"
           id="rect9309" />
        <rect
           width="131.78572"
           height="93.928566"
           x="255.89287"
           y="275.75504"
           style="fill:#000000;fill-opacity:1"
           id="rect9311" />
      </g>
      <g
         transform="translate(-198.9515,102.8433)"
         style="fill:#00e6e8;fill-opacity:1"
         id="g9313">
        <rect
           width="66.428574"
           height="66.428574"
           x="375.80005"
           y="14.165428"
           transform="matrix(0.707107,0.707107,-0.707107,0.707107,0,0)"
           style="fill:#00e6e8;fill-opacity:1"
           id="rect9315" />
        <rect
           width="131.78572"
           height="93.928566"
           x="255.89287"
           y="275.75504"
           style="fill:#00e6e8;fill-opacity:1"
           id="rect9317" />
      </g>
    </g>
    <g
       transform="matrix(0.764982,0,0,0.764982,160.0092,-86.852)"
       id="g5528">
      <g
         style="fill:#000000;fill-opacity:1"
         id="g3295">
        <rect
           width="85.862961"
           height="62.629452"
           x="74.751289"
           y="179.08531"
           style="fill:#000000;fill-opacity:1"
           id="rect2402" />
        <path
           d="M 96.469564 196.2579 A 18.182745 17.172594 0 1 1  60.104074,196.2579 A 18.182745 17.172594 0 1 1  96.469564 196.2579 z"
           transform="translate(-2.272843,0)"
           style="fill:#000000;fill-opacity:1"
           id="path3277" />
        <path
           d="M 96.469564 196.2579 A 18.182745 17.172594 0 1 1  60.104074,196.2579 A 18.182745 17.172594 0 1 1  96.469564 196.2579 z"
           transform="translate(82.57998,-5.273209e-6)"
           style="fill:#000000;fill-opacity:1"
           id="path3279" />
        <rect
           width="85.862961"
           height="62.629452"
           x="57.704964"
           y="195.50029"
           style="fill:#000000;fill-opacity:1"
           id="rect3281" />
        <rect
           width="85.862961"
           height="62.629452"
           x="92.934036"
           y="194.74268"
           style="fill:#000000;fill-opacity:1"
           id="rect3283" />
        <path
           d="M 96.469564 196.2579 A 18.182745 17.172594 0 1 1  60.104074,196.2579 A 18.182745 17.172594 0 1 1  96.469564 196.2579 z"
           transform="translate(-2.525387,62.12438)"
           style="fill:#000000;fill-opacity:1"
           id="path3289" />
        <path
           d="M 96.469564 196.2579 A 18.182745 17.172594 0 1 1  60.104074,196.2579 A 18.182745 17.172594 0 1 1  96.469564 196.2579 z"
           transform="translate(82.3274,62.12438)"
           style="fill:#000000;fill-opacity:1"
           id="path3291" />
        <rect
           width="85.862961"
           height="62.629452"
           x="75.508904"
           y="212.92543"
           style="fill:#000000;fill-opacity:1"
           id="rect3293" />
      </g>
      <rect
         width="85.862961"
         height="62.629452"
         x="76.794319"
         y="183.77026"
         style="fill:#000000;fill-opacity:1"
         id="rect4180" />
      <path
         d="M 96.469564 196.2579 A 18.182745 17.172594 0 1 1  60.104074,196.2579 A 18.182745 17.172594 0 1 1  96.469564 196.2579 z"
         transform="translate(-0.229816,4.684945)"
         style="fill:#000000;fill-opacity:1"
         id="path4182" />
      <path
         d="M 96.469564 196.2579 A 18.182745 17.172594 0 1 1  60.104074,196.2579 A 18.182745 17.172594 0 1 1  96.469564 196.2579 z"
         transform="translate(84.62301,4.68494)"
         style="fill:#000000;fill-opacity:1"
         id="path4184" />
      <rect
         width="85.862961"
         height="62.629452"
         x="59.74799"
         y="200.18524"
         style="fill:#000000;fill-opacity:1"
         id="rect4186" />
      <rect
         width="85.862961"
         height="62.629452"
         x="94.977066"
         y="199.42763"
         style="fill:#000000;fill-opacity:1"
         id="rect4188" />
      <path
         d="M 96.469564 196.2579 A 18.182745 17.172594 0 1 1  60.104074,196.2579 A 18.182745 17.172594 0 1 1  96.469564 196.2579 z"
         transform="translate(-0.48236,66.80933)"
         style="fill:#000000;fill-opacity:1"
         id="path4190" />
      <path
         d="M 96.469564 196.2579 A 18.182745 17.172594 0 1 1  60.104074,196.2579 A 18.182745 17.172594 0 1 1  96.469564 196.2579 z"
         transform="translate(84.37043,66.80933)"
         style="fill:#000000;fill-opacity:1"
         id="path4192" />
      <rect
         width="85.862961"
         height="62.629452"
         x="77.551933"
         y="217.61038"
         style="fill:#000000;fill-opacity:1"
         id="rect4194" />
      <g
         transform="matrix(0.923556,0,0,0.903745,10.37314,24.0657)"
         style="fill:#eb00e1;fill-opacity:1"
         id="g4196">
        <rect
           width="85.862961"
           height="62.629452"
           x="74.751289"
           y="179.08531"
           style="fill:#eb00e1;fill-opacity:1"
           id="rect4198" />
        <path
           d="M 96.469564 196.2579 A 18.182745 17.172594 0 1 1  60.104074,196.2579 A 18.182745 17.172594 0 1 1  96.469564 196.2579 z"
           transform="translate(-2.272843,0)"
           style="fill:#eb00e1;fill-opacity:1"
           id="path4200" />
        <path
           d="M 96.469564 196.2579 A 18.182745 17.172594 0 1 1  60.104074,196.2579 A 18.182745 17.172594 0 1 1  96.469564 196.2579 z"
           transform="translate(82.57998,-5.273209e-6)"
           style="fill:#eb00e1;fill-opacity:1"
           id="path4202" />
        <rect
           width="85.862961"
           height="62.629452"
           x="57.704964"
           y="195.50029"
           style="fill:#eb00e1;fill-opacity:1"
           id="rect4204" />
        <rect
           width="85.862961"
           height="62.629452"
           x="92.934036"
           y="194.74268"
           style="fill:#eb00e1;fill-opacity:1"
           id="rect4206" />
        <path
           d="M 96.469564 196.2579 A 18.182745 17.172594 0 1 1  60.104074,196.2579 A 18.182745 17.172594 0 1 1  96.469564 196.2579 z"
           transform="translate(-2.525387,62.12438)"
           style="fill:#eb00e1;fill-opacity:1"
           id="path4208" />
        <path
           d="M 96.469564 196.2579 A 18.182745 17.172594 0 1 1  60.104074,196.2579 A 18.182745 17.172594 0 1 1  96.469564 196.2579 z"
           transform="translate(82.3274,62.12438)"
           style="fill:#eb00e1;fill-opacity:1"
           id="path4210" />
        <rect
           width="85.862961"
           height="62.629452"
           x="75.508904"
           y="212.92543"
           style="fill:#eb00e1;fill-opacity:1"
           id="rect4212" />
      </g>
      <path
         d="M 84.955548,253.72106 C 86.318318,241.2197 87.780988,228.72885 89.244288,216.2379 C 90.034268,212.08231 90.110968,207.67466 92.224238,203.9526 C 94.665418,200.9295 98.599398,199.77829 102.0176,198.13789 C 102.36173,198.05731 102.70586,197.97674 103.04999,197.89616 C 107.25729,198.05555 111.48474,197.93324 115.67188,198.37431 C 125.2261,199.38073 141.04755,224.945 144.70752,232.77968 C 147.71164,239.80266 149.79769,247.16397 152.21728,254.39718 L 141.35885,254.72191 C 139.31022,247.45685 137.21215,240.17753 134.19681,233.24164 C 129.39281,223.07586 123.06792,214.08695 114.64098,206.58074 C 112.16647,204.37661 109.54054,202.1878 106.5774,200.65728 C 105.94239,200.32928 103.8846,199.94787 104.59218,199.84712 C 107.46849,199.43759 118.12923,199.81318 113.30118,199.49868 C 109.98424,200.95501 106.22957,202.17198 103.59512,204.67944 C 101.25009,208.10949 101.43599,212.45925 100.37283,216.3955 C 98.302778,228.73237 96.244838,241.1688 96.487088,253.72106 L 84.955548,253.72106 z "
         style="fill:#000000;fill-opacity:1;fill-rule:nonzero;stroke:none;stroke-width:1px;stroke-linecap:butt;stroke-linejoin:miter;stroke-opacity:1"
         id="path1517" />
      <path
         d="M 95.057078,234.52817 C 101.84366,227.38623 116.50827,222.64355 126.60011,218.51833 C 127.24286,218.25911 127.88562,217.99989 128.52837,217.74067 L 139.48182,219.06673 C 138.79497,219.31714 138.10812,219.56755 137.42127,219.81796 C 127.19038,223.71042 114.63924,228.8423 106.58862,234.52817 L 95.057078,234.52817 z "
         style="fill:#000000;fill-opacity:1;fill-rule:nonzero;stroke:none;stroke-width:1px;stroke-linecap:butt;stroke-linejoin:miter;stroke-opacity:1"
         id="path1519" />
    </g>
    <g
       transform="matrix(0.764982,0,0,0.764982,9.564059,317.4843)"
       id="g5620">
      <g
         transform="translate(374.2359,-111.229)"
         style="fill:#000000;fill-opacity:1"
         id="g5167">
        <rect
           width="85.862961"
           height="62.629452"
           x="74.751289"
           y="179.08531"
           style="fill:#000000;fill-opacity:1"
           id="rect5169" />
        <path
           d="M 96.469564 196.2579 A 18.182745 17.172594 0 1 1  60.104074,196.2579 A 18.182745 17.172594 0 1 1  96.469564 196.2579 z"
           transform="translate(-2.272843,0)"
           style="fill:#000000;fill-opacity:1"
           id="path5171" />
        <path
           d="M 96.469564 196.2579 A 18.182745 17.172594 0 1 1  60.104074,196.2579 A 18.182745 17.172594 0 1 1  96.469564 196.2579 z"
           transform="translate(82.57998,-5.273209e-6)"
           style="fill:#000000;fill-opacity:1"
           id="path5173" />
        <rect
           width="85.862961"
           height="62.629452"
           x="57.704964"
           y="195.50029"
           style="fill:#000000;fill-opacity:1"
           id="rect5175" />
        <rect
           width="85.862961"
           height="62.629452"
           x="92.934036"
           y="194.74268"
           style="fill:#000000;fill-opacity:1"
           id="rect5177" />
        <path
           d="M 96.469564 196.2579 A 18.182745 17.172594 0 1 1  60.104074,196.2579 A 18.182745 17.172594 0 1 1  96.469564 196.2579 z"
           transform="translate(-2.525387,62.12438)"
           style="fill:#000000;fill-opacity:1"
           id="path5179" />
        <path
           d="M 96.469564 196.2579 A 18.182745 17.172594 0 1 1  60.104074,196.2579 A 18.182745 17.172594 0 1 1  96.469564 196.2579 z"
           transform="translate(82.3274,62.12438)"
           style="fill:#000000;fill-opacity:1"
           id="path5181" />
        <rect
           width="85.862961"
           height="62.629452"
           x="75.508904"
           y="212.92543"
           style="fill:#000000;fill-opacity:1"
           id="rect5183" />
      </g>
      <rect
         width="85.862961"
         height="62.629452"
         x="451.03012"
         y="72.541306"
         style="fill:#000000;fill-opacity:1"
         id="rect5185" />
      <path
         d="M 96.469564 196.2579 A 18.182745 17.172594 0 1 1  60.104074,196.2579 A 18.182745 17.172594 0 1 1  96.469564 196.2579 z"
         transform="translate(374.006,-106.5441)"
         style="fill:#000000;fill-opacity:1"
         id="path5187" />
      <path
         d="M 96.469564 196.2579 A 18.182745 17.172594 0 1 1  60.104074,196.2579 A 18.182745 17.172594 0 1 1  96.469564 196.2579 z"
         transform="translate(458.8588,-106.5441)"
         style="fill:#000000;fill-opacity:1"
         id="path5189" />
      <path
         d="M 480.80634,73.946257 C 482.63129,93.134247 489.35933,111.54574 491.38504,130.72485 C 491.50396,131.88971 491.53402,133.05947 491.56765,134.22872 L 483.54972,134.22208 C 483.58316,133.07608 483.62295,131.92959 483.5698,130.78312 C 482.72957,111.39884 476.93778,92.765807 472.76509,73.946257 L 480.80634,73.946257 z "
         style="fill:#000000;fill-opacity:1;fill-rule:nonzero;stroke:none;stroke-width:1px;stroke-linecap:butt;stroke-linejoin:miter;stroke-opacity:1"
         id="path5151" />
      <rect
         width="85.862961"
         height="62.629452"
         x="433.9838"
         y="88.956284"
         style="fill:#000000;fill-opacity:1"
         id="rect5191" />
      <path
         d="M 467.47524,68.495777 C 470.47185,67.608657 475.97196,70.746757 479.28081,72.068717 C 490.4887,76.169197 500.26661,82.925827 510.09496,89.533347 C 518.35834,95.624707 525.88351,103.19281 531.72381,111.66831 C 533.79542,114.58056 535.26602,117.5524 534.30282,121.10501 C 530.93307,130.70839 523.66659,132.48172 515.11539,135.40382 C 503.86134,139.16649 491.9608,140.56852 480.14754,141.06654 C 477.29316,141.25758 474.4407,141.10603 471.61418,140.73123 L 475.8411,133.87685 C 478.57549,134.26292 481.32579,134.45592 484.09244,134.35538 C 495.87177,134.22974 507.64651,132.62127 518.79158,128.68527 C 522.00732,127.55214 525.25621,126.43409 528.33837,124.96515 C 529.80006,124.26852 533.25357,120.8975 532.36867,122.25351 C 531.01192,124.33259 529.59948,126.37483 528.22498,128.44222 C 527.94547,128.86263 529.42041,126.88464 528.97827,127.1283 C 530.1207,123.72194 529.11782,120.90944 527.13575,117.91931 C 521.70779,109.1915 513.91522,102.06658 505.80998,95.864607 C 496.2365,88.936917 486.28843,82.590567 475.13068,78.511037 C 471.55711,77.066257 467.11605,74.522307 463.3245,75.514297 L 467.47524,68.495777 z "
         style="fill:#000000;fill-opacity:1;fill-rule:nonzero;stroke:none;stroke-width:1px;stroke-linecap:butt;stroke-linejoin:miter;stroke-opacity:1"
         id="path5165" />
      <rect
         width="85.862961"
         height="62.629452"
         x="469.21289"
         y="88.198669"
         style="fill:#000000;fill-opacity:1"
         id="rect5193" />
      <path
         d="M 96.469564 196.2579 A 18.182745 17.172594 0 1 1  60.104074,196.2579 A 18.182745 17.172594 0 1 1  96.469564 196.2579 z"
         transform="translate(373.7535,-44.41967)"
         style="fill:#000000;fill-opacity:1"
         id="path5195" />
      <path
         d="M 96.469564 196.2579 A 18.182745 17.172594 0 1 1  60.104074,196.2579 A 18.182745 17.172594 0 1 1  96.469564 196.2579 z"
         transform="translate(458.6063,-44.41967)"
         style="fill:#000000;fill-opacity:1"
         id="path5197" />
      <rect
         width="85.862961"
         height="62.629452"
         x="451.78775"
         y="106.38142"
         style="fill:#000000;fill-opacity:1"
         id="rect5199" />
      <g
         transform="matrix(0.923556,0,0,0.903745,384.609,-87.16326)"
         style="fill:#eb00e1;fill-opacity:1"
         id="g5201">
        <rect
           width="85.862961"
           height="62.629452"
           x="74.751289"
           y="179.08531"
           style="fill:#eb00e1;fill-opacity:1"
           id="rect5203" />
        <path
           d="M 96.469564 196.2579 A 18.182745 17.172594 0 1 1  60.104074,196.2579 A 18.182745 17.172594 0 1 1  96.469564 196.2579 z"
           transform="translate(-2.272843,0)"
           style="fill:#eb00e1;fill-opacity:1"
           id="path5205" />
        <path
           d="M 96.469564 196.2579 A 18.182745 17.172594 0 1 1  60.104074,196.2579 A 18.182745 17.172594 0 1 1  96.469564 196.2579 z"
           transform="translate(82.57998,-5.273209e-6)"
           style="fill:#eb00e1;fill-opacity:1"
           id="path5207" />
        <rect
           width="85.862961"
           height="62.629452"
           x="57.704964"
           y="195.50029"
           style="fill:#eb00e1;fill-opacity:1"
           id="rect5209" />
        <rect
           width="85.862961"
           height="62.629452"
           x="92.934036"
           y="194.74268"
           style="fill:#eb00e1;fill-opacity:1"
           id="rect5211" />
        <path
           d="M 96.469564 196.2579 A 18.182745 17.172594 0 1 1  60.104074,196.2579 A 18.182745 17.172594 0 1 1  96.469564 196.2579 z"
           transform="translate(-2.525387,62.12438)"
           style="fill:#eb00e1;fill-opacity:1"
           id="path5213" />
        <path
           d="M 96.469564 196.2579 A 18.182745 17.172594 0 1 1  60.104074,196.2579 A 18.182745 17.172594 0 1 1  96.469564 196.2579 z"
           transform="translate(82.3274,62.12438)"
           style="fill:#eb00e1;fill-opacity:1"
           id="path5215" />
        <rect
           width="85.862961"
           height="62.629452"
           x="75.508904"
           y="212.92543"
           style="fill:#eb00e1;fill-opacity:1"
           id="rect5217" />
      </g>
      <path
         d="M 462.83238,81.710065 C 472.21335,92.770844 476.08929,108.36472 475.90507,122.64423 C 475.37952,130.46962 474.65405,138.29458 473.61409,146.07026 L 468.4701,152.09069 C 469.88359,144.22122 470.76762,136.25484 471.23346,128.27432 C 471.46057,114.58406 468.49381,98.932768 458.68164,88.728583 L 462.83238,81.710065 z "
         style="fill:#000000;fill-opacity:1;fill-rule:nonzero;stroke:none;stroke-width:1px;stroke-linecap:butt;stroke-linejoin:miter;stroke-opacity:1"
         id="path5279" />
      <path
         d="M 468.54666,87.781493 C 481.64504,90.118606 494.16171,96.541418 505.87361,102.69295 C 511.96272,107.01641 529.34084,114.6666 528.47644,124.45856 C 528.11194,128.58759 522.90181,134.30821 521.41282,136.46331 C 508.3237,147.38082 488.98013,147.70052 472.70928,147.51908 C 470.52295,147.49081 468.3379,147.413 466.15288,147.3372 L 470.23498,140.54542 C 472.3296,140.76367 474.42417,140.98722 476.52739,141.10908 C 492.53345,141.9468 512.27081,140.97586 524.65631,129.60024 C 523.7343,131.04783 522.84468,132.51658 521.89027,133.94302 C 520.66228,135.77836 524.00467,129.47405 523.14802,127.43872 C 519.42964,118.60405 509.60067,113.38607 501.95622,108.63096 C 490.52203,102.40727 477.62305,95.421673 464.39592,94.800012 L 468.54666,87.781493 z "
         style="fill:#000000;fill-opacity:1;fill-rule:nonzero;stroke:none;stroke-width:1px;stroke-linecap:butt;stroke-linejoin:miter;stroke-opacity:1"
         id="path5283" />
    </g>
  </g>
</svg>
